<svg xmlns="http://www.w3.org/2000/svg" xmlns:xlink="http://www.w3.org/1999/xlink" viewBox="0 0 836.46 2243.04"><defs><style>.a{fill:#6a9b00;}.b{fill:#e28f0a;}.c{fill:#ade9f2;}.d{fill:#edb220;}.e{fill:#88cc05;}.f{clip-path:url(#a);}.g{fill:#ead2a9;}.h{fill:#fff2e3;}.i{fill:#f4dcba;}.j{fill:#3aa010;}.k{fill:#358c0d;}.l{fill:#9b6415;}.m{fill:#bf7d26;}.n{fill:#874708;}.o{fill:#6d3f08;}.p{fill:#683c0d;}.av,.p{opacity:0.5;}.q{fill:#754910;}.r{fill:#43aa18;}.s{fill:#63c12d;}.t{fill:#aa8346;}.u{fill:#c6a05d;}.v{fill:#9a530b;}.w{fill:#dcc188;}.x{fill:#301605;}.y{fill:#fff;}.z{fill:#dba858;}.aa{fill:#b57f4e;}.ab{clip-path:url(#b);}.ac{fill:#514206;}.ad{fill:#c17b00;}.ae{fill:#e8a010;}.af{fill:#a36502;}.ag{fill:#c1720a;}.ah{fill:#e5d013;}.ai{fill:#ba8000;}.aj{fill:#e2a814;}.ak{fill:#9b6734;}.al{fill:#a26b36;}.am{fill:#aa6935;}.an{fill:#c6701e;}.ao{fill:#9a5432;}.ap{fill:#c48b4d;}.aq{fill:#301507;}.ar{fill:#b58047;}.as{fill:#db7b2c;}.at{fill:#ba8449;}.au,.av{fill:#eefdff;}.aw{clip-path:url(#c);}.ax{fill:#69b0b7;}.ay{fill:#c1eff4;}.az{fill:#a8aaa9;}.ba{fill:#c4c6c5;}.bb{fill:#989a98;}.bc{fill:#dbdcdb;}.bd{fill:#2f302f;}.be{fill:#d9dbd9;}</style><clipPath id="a"><path class="a" d="M416.05,461.09C198,465.24,23.37,537.73,22.39,592.56c-.77,43.47,262.71,48,386.66,47.14,137-1,403.46-8,404.23-52.82C814.24,531.24,559.61,458.35,416.05,461.09Z"/></clipPath><clipPath id="b"><path class="b" d="M412.69,1142.47c-217,4.13-390.8,76.27-391.77,130.85-.77,43.26,261.45,47.78,384.8,46.9,136.3-1,401.54-6.28,402.3-50.87C809,1214,555.56,1139.75,412.69,1142.47Z"/></clipPath><clipPath id="c"><path class="c" d="M416.51,1888c-217.79,4.68-392.22,86.31-393.2,148.07-.77,49,262.41,54.08,386.21,53.09,136.8-1.1,403-10.42,403.76-60.87C814.24,1965.57,559.9,1884.87,416.51,1888Z"/></clipPath></defs><title>M16_S1_evolucion_y_procesos_biologicos_IMG_4</title><path class="d" d="M201,488.77s-1.95-11.29,3.7-13.6,7.81,7,7.81,7,12.74-7.74,14,.05S205.33,495.58,201,488.77Z"/><path class="e" d="M488,464.07S503.71,447,519.33,449s7.55,15.78,7.55,15.78,35-10.16,31.17,8.21c0,0,32-18.73,50.6-8.86,16.29,8.64-13.12,15.52-13.12,15.52s32-9.56,30.9,6.47S493.76,499,488,464.07Z"/><path class="a" d="M416.05,461.09C198,465.24,23.37,537.73,22.39,592.56c-.77,43.47,262.71,48,386.66,47.14,137-1,403.46-8,404.23-52.82C814.24,531.24,559.61,458.35,416.05,461.09Z"/><g class="f"><path class="e" d="M403,443.89C217.92,447.14,69.72,506,68.93,550.6,68.3,586,292,589.82,397.17,589.18c116.25-.71,342.47-15.3,343.09-51.74C741,492.18,524.86,441.76,403,443.89Z"/></g><path class="a" d="M403.51,461.67c-139.95,1.61-251.88,38-252.38,65.91-.39,22.09,168.74,25,248.29,24.84,87.91-.17,258.93-8.78,259.32-31.54C659.22,492.6,495.64,460.61,403.51,461.67Z"/><path class="a" d="M73.57,602.22s-11.69-28,20-47.49,54.82-1.7,38,13.68c0,0,41.91-9.69,25.77,18.73,0,0,27-1.27,18.91,12.51C176.24,599.65,127.9,578.81,73.57,602.22Z"/><path class="e" d="M79.4,533.4s-3-13.16,13-21.86,8.46,11.19,8.46,11.19,6.5-12.67,18.18-13,6.83,6.82,6.83,6.82S81.75,534.87,79.4,533.4Z"/><path class="a" d="M342.47,589.07s15.34-24.14,45.13-23.67S404,579.51,404,579.51s62.58-12.59,48.09,11.45S338.59,613.92,342.47,589.07Z"/><path class="e" d="M499.56,585.93s28.44,17.56,43.11,16.88S559.08,587,559.08,587s30.89,7.8,50.43-9.48C620.38,567.86,542.8,560.27,499.56,585.93Z"/><path class="e" d="M704.11,560.4s28.44,9.08,36,5.1-4.44-13.59-4.44-13.59,28.49-3.31,20.36-16.17S731.24,524,731.24,524,684.6,547.54,704.11,560.4Z"/><path class="g" d="M429.17,479.15s-15.93-114.14-26-117.87-105.59,9.77-139.63,34.43c0,0-15.25,39.43-20.7,61.75,0,0,7.53,30,37.65,35.2S399.55,513.64,429.17,479.15Z"/><path class="h" d="M413.31,432.47S406.44,368,398.38,365.6s-94.71,20.19-122.82,31.16c0,0-8.3,3.4-13.34,30.4,0,0,8.54,13.51,32.8,17.73S388.56,448.73,413.31,432.47Z"/><path class="i" d="M565.82,493.55s8.69-62.19,14.17-64.23,57.54,5.33,76.08,18.76c0,0,8.32,21.49,11.28,33.65,0,0-4.1,16.33-20.51,19.18S582,512.34,565.82,493.55Z"/><path class="h" d="M574.46,468.11s3.75-35.11,8.14-36.43,51.61,11,66.92,17c0,0,4.52,1.85,7.27,16.56,0,0-4.65,7.36-17.87,9.66S588,477,574.46,468.11Z"/><path class="i" d="M273.61,546.36S260,519.19,252.82,517.12,206.16,513,191,523.67c0,0-8.45,18.78-6.16,24.22S261.82,561.91,273.61,546.36Z"/><path class="h" d="M263,530.47s-10.58-12.87-16.21-13.82-36.74-1.72-48.74,3.45c0,0-6.75,9-5,11.58S253.63,538,263,530.47Z"/><path class="e" d="M272.81,547.78s-2.89-8.56-14.43-10.36-2.55,10.66-2.55,10.66S242,531.85,228,532.38s.23,12.88.23,12.88-29.39-10.92-23.21,4.55c0,0-7-6.69-21.28.37S265.45,566,272.81,547.78Z"/><path class="i" d="M681.18,516.36s-13.62-27.17-20.78-29.23-46.66-4.13-61.82,6.55c0,0-8.45,18.78-6.16,24.22S669.39,531.92,681.18,516.36Z"/><path class="h" d="M670.58,500.48S660,487.6,654.36,486.66s-36.73-1.72-48.73,3.45c0,0-6.75,9-5,11.58S661.21,508,670.58,500.48Z"/><path class="e" d="M680.39,517.79s-2.89-8.56-14.43-10.36-2.56,10.65-2.56,10.65-13.78-16.22-27.85-15.7.22,12.89.22,12.89-29.38-10.93-23.2,4.55c0,0-7-6.69-21.28.37S673,536,680.39,517.79Z"/><path class="i" d="M171.35,547s-3-15-6.31-16-20.87-2.93-27.94.48-5.75,16.26-5.75,16.26,5,5.13,23.12,5.92S171.35,547,171.35,547Z"/><path class="h" d="M167.62,540.45s-2.38-8-5.09-8.56-17.09-1.46-22.9.4-4.79,8.73-4.79,8.73,4.09,2.72,18.92,3.05S167.62,540.45,167.62,540.45Z"/><path class="e" d="M172.78,558.49s.11-9.78-5-11.87-3.2,5.08-3.2,5.08-8.66-8.46-17.63-7.45-1.82,5.7-1.82,5.7-15.64-4.87-13.77,2.32c0,0-11.54-2.35-8.18,4.69S168.84,560.75,172.78,558.49Z"/><path class="e" d="M166.15,556.73s11.33-8.84,16.48-.29S169.13,558.92,166.15,556.73Z"/><path class="j" d="M300.72,277s-21.79,17-44.48,4.33-24.63-24.91-24.63-24.91c-8.94,4.32-21.83-2-22.94-14.27-9.69,7.63-27.62-3-27.07-14.57-9.58,12.14-54.35,14-62.79-12.92C110,226.81,90.89,216.57,99.64,204c-15.19.76-37.17-25-16.1-37.86C61,167.11,55.13,127,73.41,118.71,51,109.78,52.57,79.79,58.7,71c12-17.25,38.08-24.33,55.39-5,.09-13.57,16.57-11.9,20.06-3.35-1.94-30.38,54.58-57.19,73.6-17.35,9.29-7.2,31.61-2,29.14,15.35,5-16.15,29-27.4,41.22-12.89-.25-28.36,57.67-48.22,67.23-8.56,10.35-14.63,28.31-2.31,27,12.11,26.5-26.93,82.26,1.36,68,41.58,16.83-18.49,39.43-1.34,36.88,12.7,19.72-18.55,64.1,15.77,32,47.77,21,.33,15.23,18.14-2.3,24.72,25.92.63,53,34.53,16.1,55.54,2.17,22.15-17.47,26.31-28.73,19.58-.63,8.24-6,5.9-8.54,3.9-2.55,14-47.8,30.72-62.74,7.23,0,0-3.79,13.65-18.35,6.18-.54,11.94-14.87,14.74-20.79,7.48,0,0-19.37,15.67-24.09-10.12,0,0-1.52,22.64-23.95,12.89C334.35,289.39,309.81,301.64,300.72,277Z"/><path class="k" d="M303.8,268.68s-20.65,17.42-40.35,8.48c-23.34-10.59-25.12-24.81-25.12-24.81-7.45,3.6-25.29-5.1-26.21-15.35-8.07,6.35-16.08,5.12-15.62-4.48-8,10.12-37.17,6.68-44.2-15.76-7.3,10.1-23.25,1.57-16-8.87-12.65.64-31-20.84-13.41-31.53-18.81.78-23.66-32.66-8.43-39.52-18.69-7.44-18.61-33.46-12.26-39.77S134,76.81,148.37,92.9c.08-11.3,13.81-9.91,16.71-2.78-1.62-25.3,45.46-47.64,61.3-14.45,7.73-6,26.33-1.65,24.27,12.78C254.78,75,274.76,65.63,285,77.72c-.21-23.62,48-40.16,56-7.13,8.62-12.19,23.59-1.93,22.5,10.08,22.07-22.43,68.51,1.14,56.62,34.63,14-15.39,32.85-1.11,30.72,10.58,16.42-15.45,53.38,13.13,26.62,39.78,17.46.27,12.68,15.11-1.92,20.59,21.58.52,58.38,19.13,27.64,36.63,1.8,18.45-13.72,31.21-23.1,25.61-.52,6.86-8.34,17.67-13.88,8.79C464,269,422.23,294.44,409.78,274.87c0,0-14.5,8.47-19.45-11.64-.45,9.94-12.38,12.27-17.31,6.23,0,0-16.13,13-20.06-8.44,0,0-1.27,18.87-19.95,10.74C331.81,279,311.38,289.18,303.8,268.68Z"/><path class="l" d="M154.62,501.54s27-24.58,31.72-35.63,13.73-58.88,22-73.82,31.66-56.46,26.34-78.84S211,278,201.67,274.9s-39.86-7-44.49-5.53c0,0-6.74,6.7-13,7.63,0,0,7.29-6.16,7-10.26,0,0-12.22-9.11-13.28-22.8,0,0,9.61,17.1,17,18.62,0,0,40.34,3.14,49.15,5.73s35.5,23.77,40.51,28.35,12.75,8.27,26.19-7,28.83-28.18,27.82-38.85-27.31-42.56-57.92-53.54-49.26-11.75-63.61-17S154.06,168,145.82,167.34s-26.29.87-30.68,8.76c0,0,1.13-6.22,9.72-8.61,0,0-7-2.13-10.09-12.76,0,0,7.58,10.14,14.57,10.43s15.16-2.73,23-1.22,2.33-7.85-1.89-14.35S131,119.92,120.23,113.52c0,0,10.38,6,15,10.43,0,0-.54-7,4.33-10.76,0,0-3.14,8.69,1.09,15.19s21.56,34.43,26.57,38.87,12.19,7.74,21.54,9.63c8.31,1.68,23.91,4.11,31.75,5.62s16.06,1.36,17.21-3.18-1.44-35.74-6.13-45.52S204,107.14,201.09,106.37c0,0-9.43,1.4-13.6-1.82,0,0,7.82.69,11.92-.21a40.16,40.16,0,0,1-2-23s2,18.46,5.71,21.28,28.74,21.7,32.11,26.57,8.12,41.52,11.12,48.45,6,12.92,13.88,18.13,42.57,37.49,46.76,41.53,17.84-14.29,21.31-27.09,1.49-32.91,0-49.33-8.24-48.78-4.34-60.76,5.31-26,.65-34.14c0,0,6.37,11.82,6.11,20.86,0,0,8-14.11,8.68-21.11,0,0-2.59,16.9-6.18,22.71s-5.49,15.31-4.62,18.17c0,0,34.09-1.82,45.59-25.86,0,0-10.32,21.14-25,25.51s-20.83,8.17-19,18.41,17.17,55.07,13.26,77.06c-4.8,26.95-11.92,47.89-9.73,55.66s19.79,2.95,35.55-12.53,30.71-54.39,44-68.18,51-24.32,37.29-54.09c0,0,5.46,6.48,6.39,12.63,0,0,1-11.11,15.82-12.19,0,0-11.44,4.31-14.1,16.69s-16.85,24.13-21.32,26.67-11.75,10.07-11.75,10.07,10.6-4.7,19.24-4.44,25.9,0,32.28-11.25c0,0-6,12-14.15,13.4s-19.28,2.39-28.71,4.2-15.53,4.79-18.35,8.54-12,20.35-13.93,26.14-8.78,15.36-6.27,17.78,28.51,4.36,39.27,4.67c24.37.69,64.11-17,70.18-22.46s11.13-22,11.13-22-1.37,15.65-6.6,22.73c0,0,15.24,1.79,19.5,9.94,0,0-15.77-8.36-21.49-6.21s-41,20-63.17,23.57c-19.13,3.07-45.22-7.72-55.39-1.79s-27,25-38,28.89-25,2.35-27.45,17.19c1.29,3.27,34.55,4.89,56.92-1,14.37-3.77,31.51-.59,38.57,3.81s22.36,9.07,31.72,3.57c0,0-12.61,8-32.89-.26s-42.77,1.41-57.53,1.38c-18.55,0-36,4.53-41.28,5.85s-31.24,24-40.68,48.39-13.57,48.74-13.89,65.19,2,54.64,7.47,63.18,37.77,20.61,42.5,32.71-37.17,13.65-37.17,13.65-21.78.79-29.66-3.19c0,0-17,7-34.09,1.42S129.6,520.61,154.62,501.54Z"/><path class="m" d="M241.23,479.94c-.37-14.84-4.89-16.81-12.43-30.37-4-7.22-12.92-27.91-.37-54.19s28-42,15.4-35.15-32.67,30.57-38.55,55.39-4.93,27.89,1.5,42.78c2.32,5.35,11.64,14.55,14.31,22.75C223.47,488.43,241.52,491.44,241.23,479.94Z"/><path class="m" d="M258.23,466.05s-11.41-2.59-17.08-17.5S238.29,399.41,250,377s24.62-37.13,27.11-34.91-16.09,36.46-17.37,52.8-1.66,28,.74,42.81C262.41,449.3,266.53,472.53,258.23,466.05Z"/><path class="m" d="M241.32,349.37c16.9-11.74,52.16-34.49,60.92-41.58s16.57-38.31,19.37-48.33c0,0-20.53-12.32-19.34,4s.58,29.26-7.43,39.91-31,22.8-38.57,25.57C239.1,335.16,234.06,354.42,241.32,349.37Z"/><path class="m" d="M260.19,304.86c11.25-11.43,23.69-23.3,27.67-27.86s7.28-2.68,5.73,11.22-20.72,25-30.5,26.15S254.35,310.78,260.19,304.86Z"/><path class="m" d="M212.92,487.37c-5.21-12.55-12.75-28.86-15.84-28.8s-10.66,16.22-13.48,20.51S216.17,495.21,212.92,487.37Z"/><path class="n" d="M297.28,258.64a30.3,30.3,0,0,1,2.41,7.75,44.5,44.5,0,0,1,.7,8.07,67.56,67.56,0,0,1-2.12,16.1,54.24,54.24,0,0,1-2.71,7.71c-.55,1.25-1.14,2.48-1.8,3.67a23.15,23.15,0,0,1-2.28,3.51c-3.48,4.43-8.15,7.46-12.84,10-9.47,5-19.51,8.44-28.73,13.64a60.23,60.23,0,0,0-12.74,9.35,41.48,41.48,0,0,0-9,13,42.52,42.52,0,0,1,8.88-13.07,64.51,64.51,0,0,1,12.57-9.71c4.52-2.78,9.26-5.21,14-7.57s9.51-4.66,14-7.34,8.74-5.81,11.64-9.9a20.34,20.34,0,0,0,1.89-3.24c.58-1.14,1.11-2.32,1.58-3.51a49.31,49.31,0,0,0,2.33-7.34A67.43,67.43,0,0,0,297,274.41C297.11,269.22,297.08,264.06,297.28,258.64Z"/><path class="n" d="M341.58,210.86q-2.93,11.22-6.06,22.39c-2.08,7.45-4.19,14.89-6.39,22.31s-4.5,14.8-7,22.15A130,130,0,0,1,313,299.15a61.85,61.85,0,0,1-14.85,18.1,72.63,72.63,0,0,1-9.67,6.68l-5.06,2.83c-1.67,1-3.32,1.95-5,2.95a347.64,347.64,0,0,0-37.46,27,205.76,205.76,0,0,0-17,15.61,110.35,110.35,0,0,0-7.55,8.64,60.71,60.71,0,0,0-6.23,9.53c-.84,1.66-1.57,3.45-2.32,5.23s-1.46,3.56-2.17,5.35c-1.38,3.59-2.67,7.21-3.81,10.88a96.27,96.27,0,0,0-4.47,22.47c-.44,7.57.54,15.41,4.25,22s8.25,13.06,11.85,19.94,6.5,14.25,7.41,22a47.35,47.35,0,0,1-3,22.85,48.15,48.15,0,0,0,2.44-22.77c-1.06-7.64-4-14.85-7.78-21.56s-8.14-13.06-12.13-19.76a31.16,31.16,0,0,1-2.47-5.38,35.35,35.35,0,0,1-1.52-5.71,44.43,44.43,0,0,1-.71-5.86,54.92,54.92,0,0,1,0-5.88,94.23,94.23,0,0,1,4.3-23c1.14-3.72,2.42-7.39,3.81-11,.7-1.81,1.41-3.62,2.16-5.41s1.47-3.59,2.37-5.38a61.91,61.91,0,0,1,6.39-9.89,115.7,115.7,0,0,1,7.66-8.85A209.59,209.59,0,0,1,239.51,355c6-5,12.13-9.7,18.44-14.21s12.75-8.84,19.38-12.89q2.49-1.51,5-3l5.07-2.81a69.75,69.75,0,0,0,9.43-6.44,62.2,62.2,0,0,0,14.53-17.44,128.08,128.08,0,0,0,9.34-21c2.58-7.27,5-14.62,7.29-22C332.73,240.49,337.15,225.67,341.58,210.86Z"/><path class="n" d="M283.75,326.34c-3.24,3.15-6.38,6.48-9.45,9.83s-6,6.86-8.87,10.35a207,207,0,0,0-15.78,22.14,126,126,0,0,0-11.79,24.28c-.69,2.14-1.5,4.25-2,6.43l-.91,3.25-.75,3.28c-.55,2.18-.85,4.41-1.26,6.62-.18,1.11-.28,2.23-.43,3.34s-.27,2.23-.33,3.35a79.25,79.25,0,0,0,0,13.43,57.32,57.32,0,0,0,2.47,13.1c.39,1,.7,2.09,1.15,3.09s.87,2,1.42,3c1.06,2,2.19,4,3.31,6,2.24,4,4.52,8,6.71,12A191.32,191.32,0,0,1,259,494.65a74.59,74.59,0,0,1,3.68,13.29,34.45,34.45,0,0,1,.56,6.87,22.45,22.45,0,0,1-1.13,6.77,22.14,22.14,0,0,0,.73-6.77c0-1.13-.16-2.26-.27-3.39s-.33-2.24-.59-3.35a74.68,74.68,0,0,0-4.22-12.94,207.48,207.48,0,0,0-12.49-24.27c-2.3-3.94-4.69-7.83-7.06-11.74-1.19-2-2.37-3.93-3.49-6-.58-1-1.07-2.1-1.59-3.18s-.87-2.2-1.31-3.3a60.37,60.37,0,0,1-2.88-13.74,82.63,82.63,0,0,1-.18-14c1.24-18.61,8-36.59,17.91-52.16A196.39,196.39,0,0,1,282.58,325Z"/><path class="n" d="M298.27,519.89a63.52,63.52,0,0,0-4.9-10.75,69.14,69.14,0,0,0-6.64-9.74,63.43,63.43,0,0,0-8.21-8.42c-3-2.5-6.25-4.74-9.48-7-6.45-4.54-13-9-19.17-13.93a79.69,79.69,0,0,1-8.79-8.07,30.45,30.45,0,0,1-6.5-10.2l1.68-.55a28.76,28.76,0,0,0,6,9.72,79.14,79.14,0,0,0,8.48,8.08c6,5,12.48,9.57,18.85,14.23,3.18,2.33,6.39,4.63,9.39,7.23a64,64,0,0,1,8.13,8.65,69.82,69.82,0,0,1,6.49,9.91A64,64,0,0,1,298.27,519.89Z"/><path class="o" d="M287.64,285.75c4.61,4.85-14.38,28.38-23.89,21C258.33,302.49,283,280.9,287.64,285.75Z"/><path class="p" d="M268.09,462.26s.19,14.21,9.45,21.41,4.57,8.68-4.15,2.65c0,0-5.38,14.31-21.36-5.31,0,0-13.24,33.2-33.92,6.85,0,0-3.16,9.35-15.81,5.4s-24.05-7.54-20.07-20.72c0,0-17.61,18.14-26.83,28.28s-13.61,11.09,3.83,15.5,76.75,13.86,84.69,13.53,63.89,7.29,70.41-1,5.1-19.17-2-26.31-36.15-20.92-39.1-26.75A87.8,87.8,0,0,1,268.09,462.26Z"/><path class="q" d="M529.11,223.75s-1.37-.72-3.41-1.68c.16-.62.31-1.25.46-1.89A12.14,12.14,0,0,1,529.11,223.75Z"/><path class="q" d="M450.81,291.8s-12.61,8-32.89-.26a43.43,43.43,0,0,0-8.14-2.4c3.36-.07,6.73-.22,10.13-.43C427.27,293,441.78,297.1,450.81,291.8Z"/><path class="q" d="M372.68,83.45l.72-1.31C373.17,82.58,372.93,83,372.68,83.45Z"/><path class="q" d="M325.35,67.63l-.09-.19Z"/><path class="q" d="M325.26,67.44c-.22-.49-.46-1-.72-1.44C324.54,66,324.82,66.54,325.26,67.44Z"/><path class="q" d="M339.07,67.35c.17-1,.26-1.6.26-1.6A14.72,14.72,0,0,1,339.07,67.35Z"/><path class="q" d="M373.4,82.14c.25-.45.5-.9.72-1.37C374.12,80.77,373.87,81.27,373.4,82.14Z"/><path class="p" d="M332.11,273.55c5.51-2.67,12.7-3.14,18.94-5.34,11-3.89,27.83-22.95,38-28.89s36.26,4.86,55.39,1.79c22.21-3.57,57.46-21.41,63.17-23.57,4.05-1.52,13.12,2.22,18.08,4.53.16-.62.31-1.25.46-1.89-6-5.12-16.55-6.37-16.55-6.37,5.23-7.08,6.6-22.73,6.6-22.73s-5.06,16.53-11.13,22-45.81,23.15-70.18,22.46c-10.76-.31-36.76-2.24-39.27-4.67s4.31-12,6.27-17.78,11.12-22.39,13.93-26.14,8.93-6.73,18.35-8.54,20.51-2.82,28.71-4.2S477,160.79,477,160.79C470.66,172,453.4,172.3,444.76,172s-19.24,4.44-19.24,4.44,7.27-7.52,11.75-10.07,18.66-14.3,21.32-26.67,14.1-16.69,14.1-16.69c-14.78,1.08-15.82,12.19-15.82,12.19-.93-6.15-6.39-12.63-6.39-12.63,13.67,29.77-24,40.29-37.29,54.09s-28.28,52.69-44,68.18-33.36,20.31-35.55,12.53,4.93-28.71,9.73-55.66c3.91-22-11.44-66.81-13.26-77.06s4.28-14,19-18.41c11.47-3.41,20.27-17,23.6-22.83-12.66,21.49-44.15,23.18-44.15,23.18-.87-2.86,1-12.35,4.62-18.17,2.92-4.72,5.17-16.75,5.92-21.11-1.54,7.34-8.42,19.51-8.42,19.51.2-7-3.59-15.7-5.3-19.23,3.66,8.29,2.2,21.28-1.46,32.51-3.9,12,2.83,44.34,4.34,60.76s3.51,36.53,0,49.33S311.13,241.36,307,237.32,268.09,201,260.19,195.79s-10.89-11.19-13.88-18.13-7.75-43.57-11.12-48.45-28.36-23.76-32.11-26.57-5.71-21.28-5.71-21.28a40.16,40.16,0,0,0,2,23c-4.1.9-11.92.21-11.92.21,4.17,3.22,13.6,1.82,13.6,1.82,2.89.77,25.79,17.64,30.48,27.43s7.29,41,6.13,45.52-9.37,4.69-17.21,3.18-23.44-3.94-31.75-5.62c-9.35-1.89-16.53-5.2-21.54-9.63s-22.35-32.36-26.57-38.87-1.09-15.19-1.09-15.19C134.67,117,135.21,124,135.21,124c-4.6-4.44-15-10.43-15-10.43,10.8,6.4,26,29.56,30.22,36.07s9.73,15.86,1.89,14.35-16,1.51-23,1.22-14.57-10.43-14.57-10.43c3.06,10.63,10.09,12.76,10.09,12.76-8.59,2.39-9.72,8.61-9.72,8.61,4.39-7.89,22.45-9.43,30.68-8.76S162.67,175,177,180.23s33,6,63.61,17,56.92,42.87,57.92,53.54a15.49,15.49,0,0,1-2.12,8.57,17.14,17.14,0,0,0,5.2-2.39s9.1,15.81,22.49,10.21C324.11,267.15,328,274.64,332.11,273.55Z"/><path class="q" d="M329.93,263l-.49.12C327.54,252.44,329.93,263,329.93,263Z"/><path class="a" d="M289.71,516.2s-12.42-11.85-23.58-11.66-8.2,12.21-8.2,12.21-3.94-5.6-9.41-4.87-3.2,5.08-3.2,5.08-18.56-14.73-34.81.61,12.76,14.76,28.11,15.25,43.64.91,46.39,1.07S289.71,516.2,289.71,516.2Z"/><path class="r" d="M267.86,355.84c4.09-12.7,15.56-14.62,21.85-3.25,9.07-10.63,23.18,6.58,16.21,13.32,4.68,12.5-17.13,17.4-25.05,7.17-5.82,8.9-16.5,5.59-20.31-1.17C253.88,376.81,251.3,350.75,267.86,355.84Z"/><path class="s" d="M271.75,358.63c4.08-12.7,11.67-17.41,18-6,9.07-10.63,23.18,6.58,16.21,13.32,4.68,12.5-14.84,11.73-22.76,1.5-5.82,8.91-8.57,6.32-12.38-.44C264.1,371.87,255.18,353.54,271.75,358.63Z"/><path class="r" d="M216,274.58c8.69-3.49.06-14.05-8-11,0,0,8.09-7.63,1.88-15.16s-11.32-2.47-11.32-2.47-5.52-14.67-16.36-9.48c0,0-5.66-19.19-22.46-16.81s-16.53,13.88-16.53,13.88c-6.87-12.45-28.1-5.92-28.95,4.52-13.19-1.34-26.67,19.81-4.71,27-.5,8.23,9.06,18.42,17.12,11.66,5.91,17.95,29.55,21.11,34.75,9,4.65,11.46,31.54,12.35,33.42-.79C205,296.77,224,285.6,216,274.58Z"/><path class="s" d="M212.12,272.08c8.68-3.49,3.95-11.55-4.09-8.51,0,0,8.09-7.63,1.88-15.16s-11.32-2.47-11.32-2.47-5.52-14.67-16.36-9.48c0,0-5.66-19.19-22.46-16.81s-16.53,13.88-16.53,13.88c-6.87-12.45-21-3.94-21.85,6.5-13.19-1.34-23,14.67-2.65,18-.49,8.24,6.5,15.44,14.57,8.67,5.9,18,26.13,19.89,31.33,7.77,4.65,11.47,25.92,13.14,27.8,0C202.59,286.36,220.09,283.09,212.12,272.08Z"/><path class="r" d="M435.3,271.28C453.8,258.77,487,287,457.22,300.84c6.94,10.87-3.69,23.88-15.64,21.92,1.09,17-38.72,18.88-44.83-7.23-9.3,11.87-24.31,4.94-28-5.61-11.38,14.81-29.74,7.19-34.89-5.77-9.14,1.11-18.34-10.09-7.54-16.23,0,0,9.12-19,22.78-7.07,3.4-16.08,25.46-23.39,29.15-5.17,0,0,3.67-17.92,18-16.73s18.11,12.33,18.11,12.33S425.44,250.48,435.3,271.28Z"/><path class="s" d="M435.3,271.28c18.5-12.51,45.31,12,15.51,25.85,6.94,10.87-3.23,12.68-15.19,10.72,1.09,16.95-27.43,17.63-33.54-8.49-9.3,11.88-25.68,7.48-29.4-3.07-11.38,14.81-22.24,13-27.39,0-6.22,3.51-20.87-2.46-10.06-8.6,0,0,.18-18.8,13.84-6.84,3.4-16.08,25.46-23.39,29.15-5.17,0,0,3.67-17.92,18-16.73s18.11,12.33,18.11,12.33S425.44,250.48,435.3,271.28Z"/><path class="r" d="M392.45,76.91c8.69-3.49.06-14-8-11,0,0,8.09-7.63,1.88-15.16S375,48.27,375,48.27s-5.52-14.67-16.37-9.49c0,0-5.65-19.18-22.45-16.8s-16.54,13.88-16.54,13.88c-6.86-12.45-28.09-5.92-28.94,4.52-13.19-1.34-26.67,19.81-4.72,27-.49,8.23,9.07,18.42,17.13,11.66,5.91,17.95,29.55,21.1,34.75,9,4.65,11.46,31.54,12.35,33.42-.79C381.46,99.1,400.42,87.92,392.45,76.91Z"/><path class="s" d="M392.45,76.91c8.69-3.49.06-14-8-11,0,0,8.09-7.63,1.88-15.16S375,48.27,375,48.27s-5.52-14.67-16.37-9.49c0,0-5.65-19.18-22.45-16.8s-16.54,13.88-16.54,13.88c-6.86-12.45-21.27-3.78-22.12,6.65-13.19-1.33-19.34,11.84-4.63,16.79-.49,8.24,8.12,15.1,16.18,8.33,5.91,18,24.77,20,30,7.84,4.65,11.46,30.23,17,32.12,3.82C381.33,91.18,400.42,87.92,392.45,76.91Z"/><path class="r" d="M512.36,155.82c8.7-3,.11-12-7.94-9.37,0,0,8.11-6.55,1.93-13S495,131.41,495,131.41s-5.48-12.51-16.34-8c0,0-5.59-16.37-22.39-14.28S439.73,121,439.73,121c-6.83-10.6-28.08-5-29,4C397.58,123.87,384,142,406,148c-.52,7,9,15.71,17.09,9.9,5.84,15.31,29.47,17.93,34.71,7.56,4.62,9.78,31.49,10.44,33.42-.78C501.29,174.81,520.29,165.2,512.36,155.82Z"/><path class="s" d="M512.36,155.82c8.7-3,.11-12-7.94-9.37,0,0,8.11-6.55,1.93-13S495,131.41,495,131.41s-5.48-12.51-16.34-8c0,0-5.59-16.37-22.39-14.28S439.73,121,439.73,121c-6.83-10.6-23.52-2.08-24.41,6.84-13.18-1.1-9.71,11.77.59,13.1-.52,7,4,13.3,12.06,7.5,5.84,15.31,25.36,16.14,30.6,5.77,4.62,9.78,30.14,15.75,32.07,4.52C500.75,168.85,520.29,165.2,512.36,155.82Z"/><path class="r" d="M491.83,232c-16.81,14.7-53.27-9.13-25.42-26.61-8.24-9.93.69-24.16,12.8-23.7-3.19-16.69,36.07-23.54,45.38,1.61,7.75-12.94,23.5-7.92,28.51,2.08,9.45-16.1,28.61-10.83,35.33,1.4,8.93-2.24,19.45,7.74,9.49,15.16,0,0-6.68,20-21.72,9.85-1.38,16.38-22.36,26.37-28.28,8.75,0,0-1.42,18.23-15.76,18.83s-19.5-10-19.5-10S504.19,251.44,491.83,232Z"/><path class="s" d="M496.23,214c-12.06,15.59-36.78,2.65-20-8.83-8.23-9.93-5-19.29,7.07-18.83-3.19-16.69,32-28.2,41.3-3,7.75-12.94,23.5-7.92,28.51,2.08,9.45-16.1,28.61-10.83,35.33,1.4,8.93-2.24,19.45,7.74,9.49,15.16,0,0-9,14.61-24,4.43-1.38,16.39-20.56,23.49-26.48,5.87,0,0-1.55,18.82-15.89,19.42S516,214.88,516,214.88,508.6,233.45,496.23,214Z"/><path class="r" d="M101.76,146.79c-2.7-10.12,15.1-23.4,25.75-14,0,0-4.12-10.74,10.91-18.63a17.33,17.33,0,0,1,12-1.78,26.67,26.67,0,0,1-.66-2.81c-10.8-1-12-19.85,2.56-15.88,0,0,1.77-26.37,20.71-7.22,7.87-17.69,35.07-20.7,34.85,1.19,0,0,8.63-19.73,24.82-14.85s17.82,18.65,17.82,18.65,17.94-21.23,24.19,5.15c24.38-9.87,55.73,30.74,18,39.42,5.32,14.23-10.11,26.61-23.4,21.42-2.91,19.8-49.23,12.24-49.86-19.34a19.71,19.71,0,0,1-7.48,4c.32,1.51-.22,3.21-2.07,4.85,11.21,7.69-2.9,24.59-16.45,16.81,2.64,13-23,21.2-31.21,12C161.36,189,138,193.92,126.44,179c-5.32,9.08-17.75,2.69-20-5.23C83.3,174.41,88.9,150,101.76,146.79Z"/><path class="s" d="M109.91,148c-2.7-10.11,7-24.59,17.6-15.18,0,0-4.12-10.74,10.91-18.63a17.33,17.33,0,0,1,12-1.78,26.67,26.67,0,0,1-.66-2.81c-10.8-1-11.56-20.73,2.56-15.88,0,0,1.33-26.37,20.71-7.22,7.87-17.69,35.07-20.7,34.85,1.19,0,0,8.63-19.73,24.82-14.85s17.82,18.65,17.82,18.65,17.94-21.23,24.19,5.15c24.38-9.87,47.46,24.79,9.73,33.47,5.32,14.23-7.66,15.74-20.95,10.54-2.9,19.8-37.88,21-38.51-10.54-5.54,8-18.08,3.53-20.58,4.21.32,1.51-1.13,7.63-3,9.27,11.21,7.69-2.44,18.12-16,10.34,2.64,13-18.36,18-26.59,8.79-.83,13.16-17.86,17.08-29.45,2.16-5.32,9.08-12.26,5.76-14.57-2.16C100.65,162.7,97,151.16,109.91,148Z"/><path class="r" d="M388.93,203.05c13.9-3.21,24,14.07,21.53,24.16s-14.2,17.38-25.15,14.57c0,0-1.85,10-11.73,8.08a19.11,19.11,0,0,1-13.46-10s-33.35,10.64-42.6-14.84c0,0-14.65,7.54-24-6.22,0,0-7.92,30.2-33.27,18.87,0,0-15.66,16-31.62,1.56-5.6,6.71-22.71-1.11-14.13-14.06-7.52-15,6.05-32.62,19.8-24.72-1.3-20.52,20.45-39.94,39.77-22.31,3-13.63,16.62-10.25,20.88-3.78,4.9-19,38.76-12.83,40.8,4C345.6,161.3,389.05,173,388.93,203.05Z"/><path class="s" d="M388.93,203.05c13.9-3.21,24,14.07,21.53,24.16s-13.32,7.31-24.27,4.5c0,0-2.91,10-12.79,8.12S359.71,227,359.71,227s-29,9.05-38.3-16.43c0,0-21.18,9.61-30.55-4.15,0,0-8.84,26.59-34.19,15.26,0,0-5.45,20.19-21.42,5.77-5.59,6.7-21.37,5-12.79-8-7.52-15,2.11-23.95,15.87-16-1.31-20.53,16.4-42.84,35.72-25.21,3-13.63,16.62-10.25,20.88-3.78,4.9-19,38.76-12.83,40.8,4C345.6,161.3,389.05,173,388.93,203.05Z"/><path class="t" d="M563.46,510.48c-.56.49-5.33,22.85,7.34,33.76,5,4.32,5.21,7.74,12,8.94s15.43,4.61,16.63,7.42,3.81,6,1.41,6.4-4.81.41-7,1-10.92,0-24.3,0-30.81-28.63-30.81-28.63l-1.21-13.26L552,508.89Z"/><path class="u" d="M550.59,568.14a4.19,4.19,0,0,1-2.94-6.43c2.34-3.74,9.14-2.48,14.13-4.74,7.64-3.46,11.86-7.64,20.89-5.84,21.29,4.23,21.08,16.71,18.14,17.47-4.32,1.11-25.1-.26-35.65,0A99.22,99.22,0,0,1,550.59,568.14Z"/><path class="t" d="M428.83,552.89c-.14,2.55.67,3.18,0,7.74s-4,6.48-1.33,7.74,39.49,0,49.91,0,8.83-4,4.8-7.27c-8.47-6.88-21.65-7.67-22.76-9.67s3.21-18.31,3.21-18.31l-19.18,5-17,14.77Z"/><path class="v" d="M594.2,317.06C599,308,609.79,302,620,293s42.22-23.23,37.4-14.17-15,15.87-21.82,24.66-9.07,15.15-11.68,26.71c-4,17.93-19.94,34.11-19.94,34.11s-7.48,1.52-13.72-5.57l-5.08-9a38,38,0,0,1-3.23-13.61,42.41,42.41,0,0,1,.92-12.92Z"/><path class="w" d="M602,356.89a10.24,10.24,0,0,1-10.63-10.37c.22-9.08,8.55-43.35,6.57-60.92s-3.22-41.46-16.07-39.83c-10.06,1.27-38.29,34.58-22.76,91.69,3.56,13.09,1.42,31.74.29,38.82,0,.07,0,.14,0,.22A19.64,19.64,0,0,1,544.67,392c-6.74,1.71-16.21,3.46-24.71,2.67-15.3-1.41-55.54-7.83-83.31.2s-102.76,30.79-106.11,86.79c-1.3,21.78,3.24,39.11,10.89,52.15s13.89,13,17.29,23.24-.57,11,6.23,11.61,21.26,2.55,34.29,0,12.19-3.4,20.4-8.21,7.37-8.79,24.66-13.61,26.07-7.08,34.29-13.31,25-10.88,27.77-6.81c5.85,8.75,6.23,21,12.18,24.94s-.13,13.32,8.37,15.59,32,2,41.94,2,.13-13.61-7.24-15.88S541.7,539,544.53,532.49s8-9.42,14.25-17.35,23.8-16.44,35.71-34,12.75-13.32,17-28.62,5.1-21.82,5.1-21.82,19.21,1.05,28.46-2.79c7.7-3.19,11.78-4.74,12.63-14s4.86-10,1.7-17.77c-5.63-13.87-10.07-17.44-20.55-27.07s-13.74-9.77-22.81-11.47A70.77,70.77,0,0,0,602,356.89Z"/><path class="v" d="M583.06,321.24a114.35,114.35,0,0,1,7.2-32.25c1.36-3.54,2.4-6.83,2.4-9.09,0-5.84-2.08-11.94-8.18-13s-16,6.75-17.39,14.08-2.18,10.17-2.2,17.32c-.08,23.33,9.34,40.88,11.94,43s3.89.52,5-7.27C582.24,331.09,582.68,326.21,583.06,321.24Z"/><path class="x" d="M601.72,371.62c-1.44-.84,5.53-3.69,10.62-2.1s7,7.12,7.84,10.61a5,5,0,0,0-3.59.38c-2.09,1-6.67,3.37-10.55,0S602.93,372.32,601.72,371.62Z"/><circle class="y" cx="612.18" cy="375.21" r="1.32"/><path class="v" d="M656.29,408.65c-.43-3.77,1.11-3.25-1.11-6.34s-1.89-.34-4.11-1.2a20.78,20.78,0,0,1-3.77-1.88s.17,6.17,1.88,7.54S656.29,408.65,656.29,408.65Z"/><path class="u" d="M616.59,430.69s-4.35,1.09-11.07-3.76-12.17-15.59-20.78-18.28-19.93,0-19.93,0c8.23,0,20.37,1.18,21.72,8.4s-2.93,12.35,6.88,22.26c4.4,4.45,7,19.78,12,27.3,2.53-3.32,3.85-5.93,6.12-14.1,4.25-15.3,5.1-21.82,5.1-21.82Z"/><path class="u" d="M365,568.69c-.71-4,.92-12.33,8.56-15.79s19.74-10.26,28.56-7.64c15.11,4.49,17.1,23.76,12.73,24.7s-25.1,0-35.65,0S365,568.69,365,568.69Z"/><path class="z" d="M561.61,553.39l-.1,0a17.15,17.15,0,0,0-8.9.35c-4.17,1.31-7.66,3.62-12.83,2.39s-9-1.35-12.2-.25-7-1.9-7.15-2.14h0c2.6,4.51-.78,11.63,6.49,13.57,8.5,2.27,32,2,41.94,2S569,555.66,561.61,553.39Z"/><path class="u" d="M498.19,465c-12.62,11.24-19.15,23-14.56,37.94s3.17,21.48-7.05,28.59-26.8,13.86-26.82,13.87c13.76-3.84,21.52-6.26,28.83-11.79,8.21-6.24,25-10.88,27.77-6.81a29.91,29.91,0,0,1,1.68,2.9h0c-1.68-2.9-2.28-6.89-7.55-12.63s-8.17-18.44-6.1-27.38,16.65-23.09,16.88-38.23-2.1-16.38-2.1-16.38S510.81,453.71,498.19,465Z"/><path class="aa" d="M808.33,1263.12s-50.46-303.8-88.08-353.53c-199-263.07-273.63-267.83-409.4-101.1,0,0-136.71,200.52-137.31,297.55S573.61,1313.16,808.33,1263.12Z"/><path class="d" d="M198.64,1170s-1.94-11.24,3.68-13.54,7.78,6.93,7.78,6.93,12.68-7.71,13.94,0S203,1176.8,198.64,1170Z"/><path class="d" d="M484.31,1145.44s15.62-17,31.16-15,7.52,15.71,7.52,15.71,34.8-10.11,31,8.16c0,0,31.87-18.63,50.36-8.82,16.21,8.61-13.06,15.45-13.06,15.45s31.8-9.51,30.76,6.44S490,1180.16,484.31,1145.44Z"/><path class="b" d="M412.69,1142.47c-217,4.13-390.8,76.27-391.77,130.85-.77,43.26,261.45,47.78,384.8,46.9,136.3-1,401.54-6.28,402.3-50.87C809,1214,555.56,1139.75,412.69,1142.47Z"/><g class="ab"><path class="d" d="M399.71,1125.36c-184.2,3.23-331.69,61.8-332.48,106.19-.62,35.19,222,39,326.67,38.4,115.7-.71,340.83-15.23,341.45-51.5C736.13,1173.41,521,1123.23,399.71,1125.36Z"/></g><path class="b" d="M400.21,1143.05c-139.28,1.6-250.67,37.86-251.17,65.59-.39,22,167.93,24.89,247.11,24.73,87.48-.18,257.68-8.74,258.07-31.4C654.7,1173.83,491.9,1142,400.21,1143.05Z"/><path class="b" d="M71.85,1282.92s-11.64-27.9,19.86-47.26,54.56-1.69,37.85,13.62c0,0,41.72-9.65,25.65,18.64,0,0,26.85-1.27,18.82,12.44C174,1280.36,125.92,1259.62,71.85,1282.92Z"/><path class="d" d="M77.66,1214.43s-3-13.1,13-21.75,8.42,11.13,8.42,11.13,6.47-12.6,18.1-13,6.79,6.79,6.79,6.79S80,1215.9,77.66,1214.43Z"/><path class="b" d="M339.46,1269.83s15.27-24,44.92-23.55,16.3,14,16.3,14,62.28-12.53,47.86,11.39S335.6,1294.57,339.46,1269.83Z"/><path class="d" d="M495.8,1266.71s28.3,17.48,42.91,16.8S555,1267.74,555,1267.74s30.74,7.76,50.18-9.44C616.05,1248.73,538.83,1241.17,495.8,1266.71Z"/><path class="d" d="M699.37,1241.31s28.31,9,35.81,5.07-4.41-13.53-4.41-13.53,28.35-3.29,20.26-16.09S726.38,1205,726.38,1205,680,1228.51,699.37,1241.31Z"/><path class="d" d="M519.57,1233.52s-.18-15.45,7.86-18.74,5.06,8,5.06,8,13.68-13.37,27.84-11.77,2.88,9,2.88,9,24.7-7.69,21.75,3.66c0,0,18.21-3.71,12.91,7.4S525.79,1237.1,519.57,1233.52Z"/><path class="d" d="M530,1230.74s-17.88-14-26-.45S525.32,1234.21,530,1230.74Z"/><path class="i" d="M440.65,1202.68s5.74-31.93,11.83-33.56,67.75-13.54,88.34-2.8c0,0,9.22,17.18,12.52,26.91,0,0-4.56,13-22.77,15.33S458.57,1217.7,440.65,1202.68Z"/><path class="ac" d="M359,1257.4s14.21,1.06,24.7-3.64c0,0,2.52.8,2.07,1.54s-17.35,5.21-26.54,2.71Z"/><path class="ad" d="M363.05,1258.32s-2.54-9.28-17.06-9.62a29.59,29.59,0,0,0-22.41,9s6.79,7.73,21.31,7.44C357.26,1264.9,363.05,1258.32,363.05,1258.32Z"/><path class="ae" d="M362.66,1258.36s-2.12-7.78-14.28-8.06a24.78,24.78,0,0,0-18.76,7.55s5.68,6.48,17.83,6.23C357.81,1263.87,362.66,1258.36,362.66,1258.36Z"/><path class="af" d="M342.42,1261.15c4.24.17,5.88-2,6.36-2.8,2,.13,3.9.24,5.82.29-2,.71-4.29,3.65-4.29,3.65,4.77-1.09,6.07-3.64,6.07-3.64l.6,0a25.47,25.47,0,0,0,5.68-.34s-.45-1.56-6.09-2.24a12.5,12.5,0,0,0-3.32-4.08,8.23,8.23,0,0,0,1.23,3.89c-1.57-.11-3.47-.15-5.72-.1a15,15,0,0,0-4.91-4.73s-.54,2.83,2.8,4.78c-2.23.1-4.82.29-7.73.56-.35-.44-1.23-1.19-3.49-2a3.38,3.38,0,0,0,1.83,2.13c-1.14.12-2.32.26-3.56.41l4.27.43a8.59,8.59,0,0,0-3.15,2c3-.23,3.89-1.49,4.11-2,2.47.23,5.21.48,8,.7A9.6,9.6,0,0,0,342.42,1261.15Z"/><path class="ac" d="M640.59,1241s14.24.78,25-5.33c0,0,2.5.88,2,1.81s-17.64,7-26.79,4.26Z"/><path class="ad" d="M644.66,1242s-2.21-11.24-16.81-11.13S605,1242.7,605,1242.7s6.55,9.2,21.16,8.31C638.61,1250.25,644.66,1242,644.66,1242Z"/><path class="ae" d="M644.27,1242.08s-1.86-9.41-14.08-9.32-19.14,9.89-19.14,9.89,5.48,7.7,17.72,7A21.52,21.52,0,0,0,644.27,1242.08Z"/><path class="af" d="M623.81,1246.21a6.74,6.74,0,0,0,6.5-3.64c2,.09,3.92.15,5.84.14-2,.94-4.44,4.61-4.44,4.61,4.83-1.51,6.23-4.66,6.23-4.66l.61,0a21.45,21.45,0,0,0,5.72-.62s-.39-1.89-6-2.52a13.63,13.63,0,0,0-3.19-4.85,11,11,0,0,0,1.09,4.7,54.57,54.57,0,0,0-5.75.08,15.53,15.53,0,0,0-4.76-5.59,5.94,5.94,0,0,0,2.64,5.73c-2.25.2-4.86.52-7.79,1-.34-.53-1.21-1.4-3.45-2.28a3.79,3.79,0,0,0,1.76,2.54c-1.14.19-2.34.39-3.59.62,0,0,1.71.16,4.27.37a9.72,9.72,0,0,0-3.23,2.61c3-.39,4-2,4.21-2.53,2.47.19,5.21.4,8,.56A10.88,10.88,0,0,0,623.81,1246.21Z"/><path class="ac" d="M304.24,1260.07s11.35-6.28,23.07-5.34c0,0,1.64-1.73.82-2.32s-17.81,1-24.07,7Z"/><path class="ag" d="M305.51,1258.6s3.49,10.4-8.58,16.06-24.39-1-24.39-1,1-10.37,13.49-15.38A24.93,24.93,0,0,1,305.51,1258.6Z"/><path class="ah" d="M305.16,1258.71s2.92,8.7-7.18,13.44-22.18-.22-22.18-.22a22.56,22.56,0,0,1,13.05-13.48A20.88,20.88,0,0,1,305.16,1258.71Z"/><path class="ai" d="M291.27,1270.79a5,5,0,0,0,2.72-5.27c1.66-.71,3-1.3,4.57-2.08-1,1.48,0,5,0,5,2.88-3,1.78-5.9,1.78-5.9l.52-.21a16.17,16.17,0,0,0,4.24-2.75s-1.48-.66-6.55,1.15a22.29,22.29,0,0,0-5.7-2.3,15.21,15.21,0,0,0,3.87,3,45.8,45.8,0,0,0-4.64,2.37c-1.37-.7-2.08-1.39-6.2-1.28a9.5,9.5,0,0,0,4.56,2.23c-1.7,1-3.8,1.77-5.88,3.27a9.8,9.8,0,0,0-4.45-.29,12.8,12.8,0,0,0,3.25,1.15c-.8.6-1.64,1.22-2.5,1.89,0,0,.94-.34,3.19-1.22a7.66,7.66,0,0,0-.21,3c2.2-1.49,1.84-3,1.64-3.53,2.16-.85,4.56-1.8,7-2.81A6.28,6.28,0,0,0,291.27,1270.79Z"/><path class="ac" d="M375.62,1229.49s10.59-1.58,18.59,2c0,0,1.86-.81,1.5-1.43s-13.14-3.71-19.93-1.12Z"/><path class="ag" d="M377.12,1228.78s-1.61,8.17-12.46,9.15a20.45,20.45,0,0,1-17-6.79s4.83-7,15.7-7.44C372.58,1223.34,377.12,1228.78,377.12,1228.78Z"/><path class="ah" d="M376.82,1228.76s-1.34,6.85-10.43,7.66-15.75-5.69-15.75-5.69a22.65,22.65,0,0,1,14.63-6.22C373,1224.21,376.82,1228.76,376.82,1228.76Z"/><path class="ai" d="M362.14,1233.79a4.92,4.92,0,0,0,4-3c1.47-.09,2.66-.17,4.08-.33-1.27.81-2,3.51-2,3.51,3.25-1.42,3.59-3.71,3.59-3.71l.46,0a15.48,15.48,0,0,0,4.1-.87s-.79-.84-5.12-.83a13.67,13.67,0,0,0-3.17-3,9,9,0,0,0,1.58,3.09,41.54,41.54,0,0,0-4.25.5c-.71-.83-.94-1.49-3.92-2.44a5.64,5.64,0,0,0,2.37,2.71c-1.63.31-3.41.29-5.49.82a6.77,6.77,0,0,0-3.07-1.31,8,8,0,0,0,1.88,1.62c-.81.22-1.65.45-2.53.71l2.75-.06a6.93,6.93,0,0,0-1.32,2c2.16-.5,2.51-1.67,2.56-2.08,1.88-.06,4-.12,6.1-.23A5.88,5.88,0,0,0,362.14,1233.79Z"/><path class="ac" d="M621.57,1233.82s-13.05,4.47-24,.17c0,0-2.16,1.64-1.57,2.58s17.5,3.55,25.51-1.86Z"/><path class="ag" d="M619.85,1235.23s.14-13.41,13.66-17,23.16,7.77,23.16,7.77-4.49,12.16-18.16,14.81A20.54,20.54,0,0,1,619.85,1235.23Z"/><path class="ah" d="M620.22,1235.2s.12-11.23,11.44-14.19,21.29,6.25,21.29,6.25-5.66,10.43-17.11,12.65A17.21,17.21,0,0,1,620.22,1235.2Z"/><path class="ai" d="M637.66,1224.46a6.85,6.85,0,0,0-4.39,5.58c-1.84.41-3.33.75-5.1,1.26,1.42-1.52,1.71-6,1.71-6a8.64,8.64,0,0,0-3.69,6.6l-.58.12a16.58,16.58,0,0,0-5,2.15s1.19,1.19,6.69.4a19.8,19.8,0,0,0,4.71,4.29c-1.07-2.32-1.76-3.73-2.71-4.67a41.83,41.83,0,0,0,5.26-1.59c1.09,1.21,1.54,2.24,5.54,3.21,0,0-1.43-3-3.64-3.91,2-.79,4.26-1.09,6.77-2.33a8,8,0,0,0,4.19,1.54,11.79,11.79,0,0,0-2.75-2.25c1-.5,2-1,3-1.6,0,0-1,.16-3.47.6a12.12,12.12,0,0,0,1.2-3.51c-2.62,1.2-2.79,3.13-2.77,3.8-2.36.43-5,.92-7.66,1.49C637.15,1227.9,637.66,1224.46,637.66,1224.46Z"/><path class="ad" d="M250.63,1264.62s4.48,9.76,18.74,6.78a29.84,29.84,0,0,0,19.94-15.24s-8.3-7-22.41-3.35C254.87,1256,250.63,1264.62,250.63,1264.62Z"/><path class="ae" d="M251,1264.49s3.75,8.17,15.69,5.67a25,25,0,0,0,16.69-12.75s-6.95-5.9-18.77-2.81C254.55,1257.24,251,1264.49,251,1264.49Z"/><path class="af" d="M270.17,1256.7c-4.18.79-5.32,3.54-5.6,4.59-1.94.31-3.87.63-5.75,1,1.75-1.24,3.4-5.06,3.4-5.06-4.42,2.33-5.14,5.46-5.14,5.46l-.61.09a22.8,22.8,0,0,0-5.46,1.69s.77,1.64,6.43,1.09a13,13,0,0,0,4.12,3.77,9.87,9.87,0,0,0-2-4c1.56-.25,3.42-.65,5.6-1.22a15.37,15.37,0,0,0,5.82,4.14,5.48,5.48,0,0,0-3.77-4.69c2.17-.62,4.66-1.43,7.43-2.41.44.42,1.47,1,3.84,1.39a3.58,3.58,0,0,0-2.25-2c1.09-.4,2.21-.82,3.4-1.28,0,0-1.71.19-4.27.51a9.24,9.24,0,0,0,2.64-3c-2.88,1-3.48,2.56-3.6,3.13-2.46.31-5.19.66-8,1.07A10.33,10.33,0,0,0,270.17,1256.7Z"/><path class="ac" d="M553,1251s11.94,7.85,24.78,7.51c0,0,1.67,2.07.73,2.7s-19.35-2.3-25.75-9.42Z"/><path class="ad" d="M556,1254s4.55-11.61-8.19-18.81-26.68-.39-26.68-.39.39,11.86,13.6,18.34A26.23,26.23,0,0,0,556,1254Z"/><path class="ae" d="M555.6,1253.82s3.81-9.72-6.87-15.75-22.33-.33-22.33-.33.33,9.93,11.39,15.36A22,22,0,0,0,555.6,1253.82Z"/><path class="af" d="M535.44,1247.45a7,7,0,0,0,7.74-.16c1.65,1.06,3.32,2.11,5,3.06-2.27-.12-6.52,2.09-6.52,2.09,5.07,1,8.1-1.24,8.1-1.24l.51.34a20.07,20.07,0,0,0,5.33,2.28s.74-2-3.81-5.38a14.26,14.26,0,0,0,0-6.13,12.8,12.8,0,0,0-1.75,4.94,51,51,0,0,0-5.05-2.79,16.29,16.29,0,0,0-.92-7.62,6.69,6.69,0,0,0-1,6.69c-2.07-1-4.52-2-7.33-3,0-.67-.23-1.92-1.67-3.86a4,4,0,0,0,.07,3.26c-1.11-.4-2.27-.81-3.49-1.22,0,0,1.39,1,3.51,2.48a10.48,10.48,0,0,0-4.32.82c2.85,1.15,4.57.15,5.12-.26,2,1.42,4.3,3,6.66,4.55A11.69,11.69,0,0,0,535.44,1247.45Z"/><path class="ac" d="M144.19,1206.56s13.77-2.16,22.19-12.5c0,0,2.63.59,2.45,1.89s-14.73,13-24.23,11.52Z"/><path class="aj" d="M146.33,1207.15S141,1193,127.11,1196.44s-18.3,20.45-18.3,20.45,8.91,10.48,22.54,6.06C143,1219.19,146.33,1207.15,146.33,1207.15Z"/><path class="ah" d="M146,1207.31s-4.5-11.81-16.09-9-17.16,17.85-17.16,17.85,9.3,8,20.71,4.34C143.16,1217.4,146,1207.31,146,1207.31Z"/><path class="ai" d="M125.7,1205.17c3.2-.6,5.73,2.26,6.23,3.58,1.86-.54,3.36-1,5.2-1.36-1.91-.86-3.92-5.42-3.92-5.42a8.39,8.39,0,0,1,6,5l.58-.18c2.43-.48,4.43-.68,5.45-.37,0,0-.64,1.89-6,4a27.31,27.31,0,0,1-2.66,7c.08-3,.16-4.86.67-6.36a39.19,39.19,0,0,1-5.47,1.1c-.53,1.84-.54,3.17-3.85,6.32,0,0,.16-3.9,1.82-6.06-2.15.21-4.35,1.09-7.15,1.11a9.7,9.7,0,0,1-3.25,3.84,16,16,0,0,1,1.65-3.83c-1.09,0-2.23,0-3.43-.08,0,0,1-.37,3.44-1.2a12.31,12.31,0,0,1-2.49-3.08,3.76,3.76,0,0,1,4,2.55c2.35-.79,5-1.66,7.65-2.47C127.52,1208.53,125.7,1205.17,125.7,1205.17Z"/><path class="ak" d="M95.78,1161.32s21.69-146.65,48.41-179.07C285.53,810.76,354.55,732.83,448,839.27c0,0,77,202.48,76.55,265.09S182.51,1325,95.78,1161.32Z"/><path class="d" d="M102.35,1176.54s-2.77-97.92,49.11-127.61,32.94,116.71,32.94,116.71S219,973.11,287.53,967.27s24,144,24,144,119.75-146.45,120.13,31.38c0,0,20.39-80.49,102.82-13.66S173,1373.6,102.35,1176.54Z"/><path class="ak" d="M574.36,1190.76s7.52-60.33,16.42-65.86,99.84-94.15,129.92-57.65c0,0,13.48,58.37,18.29,91.41,0,0-6.65,44.34-33.27,52.09S600.53,1241.81,574.36,1190.76Z"/><path class="al" d="M480.45,1164.92s29-176,41.36-185,51.49,44.1,78,73.8S630.25,1171,630.25,1171s-18.81,44.69-86.59,51.51S480.45,1164.92,480.45,1164.92Z"/><path class="d" d="M484.52,1201.57s-.36-75.5,16.54-91.6,10.63,39.2,10.63,39.2,28.75-65.32,58.52-57.52,6,44,6,44,51.92-37.59,45.71,17.93c0,0,38.29-18.18,27.14,36.15S497.6,1219.07,484.52,1201.57Z"/><path class="d" d="M551,1158.88s-26.12-47.41-38-1.53S544.17,1170.66,551,1158.88Z"/><path class="i" d="M440.65,1202.68s5.74-31.93,11.83-33.56,67.75-13.54,88.34-2.8c0,0,9.22,17.18,12.52,26.91,0,0-4.56,13-22.77,15.33S458.57,1217.7,440.65,1202.68Z"/><path class="h" d="M448.84,1188s3.64-16.66,8.51-17.72,59.2-8.29,76.2-3.51c0,0,5,1.48,8.06,13.24,0,0-5.16,5.89-19.83,7.73S463.81,1195.09,448.84,1188Z"/><path class="i" d="M203.82,1233.2s21.51-42.91,32.82-46.17,73.69-6.52,97.63,10.34c0,0,13.34,29.66,9.73,38.26S222.44,1257.76,203.82,1233.2Z"/><path class="h" d="M220.56,1208.11s16.72-20.33,25.61-21.83,58-2.7,77,5.46c0,0,10.67,14.21,7.87,18.28S235.36,1219.92,220.56,1208.11Z"/><path class="d" d="M205.07,1235.45s4.56-13.52,22.79-16.36,4,16.82,4,16.82,21.77-25.62,44-24.79-.35,20.36-.35,20.36,46.41-17.26,36.64,7.18c0,0,11-10.57,33.61.58S216.69,1264.22,205.07,1235.45Z"/><path class="i" d="M401.42,1218.86s4.74-23.71,10-25.35,33-4.62,44.13.77,9.08,25.67,9.08,25.67-7.93,8.1-36.52,9.34S401.42,1218.86,401.42,1218.86Z"/><path class="h" d="M407.31,1208.47s3.77-12.66,8-13.51,27-2.32,36.16.62,7.56,13.79,7.56,13.79-6.46,4.29-29.87,4.82S407.31,1208.47,407.31,1208.47Z"/><path class="d" d="M399.17,1237s-.17-15.44,7.87-18.74,5,8,5,8,13.68-13.36,27.84-11.76,2.88,9,2.88,9,24.7-7.69,21.75,3.67c0,0,18.22-3.72,12.91,7.4S405.39,1240.53,399.17,1237Z"/><path class="d" d="M409.63,1234.17s-17.88-14-26-.45S404.92,1237.64,409.63,1234.17Z"/><path class="am" d="M451.21,1203.13c-.45.39-4.34,18.63,6,27.52,4.09,3.53,4.25,6.31,9.8,7.29s12.58,3.76,13.57,6,3.1,4.89,1.14,5.22-3.92.33-5.72.82-8.91,0-19.81,0-25.13-23.34-25.13-23.34l-1-10.81,11.77-14.05Z"/><path class="an" d="M440.72,1250.14a3.42,3.42,0,0,1-2.4-5.25c1.91-3,7.45-2,11.53-3.86,6.22-2.82,9.66-6.23,17-4.76,17.36,3.45,17.19,13.62,14.79,14.24-3.52.91-20.46-.21-29.06,0A81.15,81.15,0,0,1,440.72,1250.14Z"/><path class="am" d="M341.45,1237.7c-.12,2.09.54,2.6,0,6.31s-3.26,5.29-1.09,6.31,32.2,0,40.7,0,7.19-3.25,3.91-5.92c-6.91-5.61-17.66-6.26-18.56-7.89s2.62-14.93,2.62-14.93l-15.64,4.08-13.86,12Z"/><path class="ao" d="M476.28,1045.43c3.92-7.4,12.7-12.25,21-19.64s34.43-18.95,30.5-11.56-12.25,12.94-17.79,20.11-7.4,12.35-9.53,21.78c-3.29,14.61-16.26,27.81-16.26,27.81s-6.1,1.23-11.18-4.54l-4.15-7.36a31.15,31.15,0,0,1-2.63-11.1,34.67,34.67,0,0,1,.75-10.53Z"/><path class="ap" d="M482.59,1077.9a8.34,8.34,0,0,1-8.66-8.45c.17-7.41,7-35.35,5.35-49.67s-2.63-33.81-13.1-32.48c-8.2,1-31.22,28.19-18.55,74.76,2.9,10.67,1.15,25.88.23,31.65l0,.18a16,16,0,0,1-11.94,12.66c-5.49,1.39-13.21,2.82-20.15,2.18-12.47-1.15-45.28-6.38-67.92.16S264,1134,261.31,1179.65c-1.06,17.76,2.64,31.89,8.88,42.52s11.32,10.63,14.09,18.95-.46,9,5.08,9.47,17.33,2.08,28,0,9.93-2.77,16.64-6.7,6-7.16,20.1-11.09,21.25-5.78,27.95-10.86,20.42-8.87,22.64-5.54c4.77,7.12,5.09,17.09,9.94,20.33s-.11,10.86,6.82,12.71,26.11,1.62,34.2,1.62.1-11.1-5.9-13-16.24-11.72-13.93-17,6.53-7.68,11.62-14.15,19.4-13.4,29.11-27.72,10.39-10.86,13.86-23.34,4.16-17.79,4.16-17.79,15.66.86,23.21-2.27c6.28-2.61,9.6-3.87,10.29-11.43s4-8.13,1.39-14.48c-4.59-11.32-8.21-14.22-16.76-22.08s-11.2-8-18.59-9.35A57.92,57.92,0,0,0,482.59,1077.9Z"/><path class="ao" d="M467.19,1048.84a93.74,93.74,0,0,1,5.87-26.3c1.11-2.88,2-5.57,2-7.41,0-4.77-1.69-9.74-6.67-10.59s-13,5.51-14.17,11.48-1.78,8.3-1.8,14.13c-.07,19,7.61,33.33,9.73,35s3.17.42,4.07-5.92C466.52,1056.87,466.88,1052.88,467.19,1048.84Z"/><path class="aq" d="M482.41,1089.91c-1.18-.68,4.51-3,8.65-1.71s5.75,5.8,6.4,8.65a4,4,0,0,0-2.93.31c-1.71.78-5.44,2.75-8.6,0S483.39,1090.48,482.41,1089.91Z"/><circle class="y" cx="490.93" cy="1092.84" r="1.08"/><path class="ao" d="M526.9,1120.1c-.35-3.07.9-2.65-.91-5.16s-1.54-.28-3.35-1a17,17,0,0,1-3.07-1.54s.14,5,1.53,6.15S526.9,1120.1,526.9,1120.1Z"/><path class="ar" d="M494.53,1138.07s-3.54.89-9-3.06-9.92-12.72-16.94-14.91-16.25,0-16.25,0c6.71,0,16.61,1,17.71,6.85s-2.39,10.07,5.61,18.15c3.59,3.62,5.73,16.13,9.75,22.26,2.07-2.71,3.14-4.83,5-11.5,3.47-12.47,4.16-17.79,4.16-17.79Z"/><path class="ar" d="M289.36,1250.59c-.58-3.24.75-10.06,7-12.88s16.09-8.36,23.29-6.23c12.32,3.66,13.94,19.38,10.38,20.15s-20.47,0-29.07,0S289.36,1250.59,289.36,1250.59Z"/><path class="as" d="M449.71,1238.11a.19.19,0,0,1-.08,0,14,14,0,0,0-7.26.29c-3.4,1.06-6.25,3-10.46,1.94s-7.34-1.1-10-.2-5.72-1.55-5.83-1.74h0c2.12,3.67-.64,9.48,5.29,11.06,6.94,1.85,26.11,1.62,34.2,1.62S455.71,1240,449.71,1238.11Z"/><path class="ar" d="M398,1166c-10.29,9.17-15.62,18.78-11.88,30.94s2.59,17.51-5.74,23.3-21.85,11.31-21.87,11.32c11.22-3.14,17.55-5.1,23.5-9.62,6.7-5.08,20.42-8.87,22.64-5.54a23.09,23.09,0,0,1,1.38,2.36h0c-1.38-2.36-1.86-5.62-6.16-10.3s-6.66-15-5-22.33,13.58-18.82,13.77-31.16-1.71-13.36-1.71-13.36S408.28,1156.84,398,1166Z"/><path class="at" d="M342.52,1120.1s-21.11,7.15-19.46,11.77S329.82,1125.4,342.52,1120.1Z"/><path class="at" d="M301.86,1136.81s-21.12,7.14-19.47,11.76S289.16,1142.11,301.86,1136.81Z"/><path class="at" d="M322.62,1126.1s-12.54,5.43-11.3,8.17S315.13,1130,322.62,1126.1Z"/><path class="at" d="M309.79,1145.55s-16.61,7.19-15,10.82S299.86,1150.69,309.79,1145.55Z"/><path class="at" d="M367.64,1113.76s-18.09.85-17.83,4.82S356.54,1115.05,367.64,1113.76Z"/><path class="at" d="M345.49,1114.28s-10.88.51-10.73,2.91S338.81,1115.06,345.49,1114.28Z"/><path class="at" d="M385.85,1110.62s-10.88.52-10.73,2.91S379.17,1111.4,385.85,1110.62Z"/><path class="at" d="M285.28,1170.35s-12.54,5.43-11.3,8.17S277.79,1174.23,285.28,1170.35Z"/><path class="at" d="M291,1151.37s-12.55,5.43-11.31,8.17S283.48,1155.25,291,1151.37Z"/><path class="at" d="M300.4,1166s-12.54,5.42-11.3,8.16S292.9,1169.83,300.4,1166Z"/><path class="at" d="M345.82,1152.8s-12.54,5.42-11.3,8.16S338.33,1156.67,345.82,1152.8Z"/><path class="at" d="M371.22,1193.06s-12.54,5.43-11.3,8.17S363.73,1196.94,371.22,1193.06Z"/><path class="at" d="M370.25,1138.57s-13.47,2.35-12.9,5.3S362.06,1140.59,370.25,1138.57Z"/><path class="at" d="M325.18,1120.1s-21.11,7.15-19.46,11.77S310.29,1126.61,325.18,1120.1Z"/><path class="at" d="M335,1136.76s-21.11,7.15-19.47,11.77S320.07,1143.27,335,1136.76Z"/><path class="at" d="M321.8,1171.55s-21.11,7.14-19.46,11.76S306.91,1178.06,321.8,1171.55Z"/><path class="at" d="M390.26,1161.79s-21.11,7.14-19.46,11.76S375.37,1168.29,390.26,1161.79Z"/><path class="at" d="M306.92,1201.83s-21.12,7.15-19.47,11.76S292,1208.34,306.92,1201.83Z"/><path class="at" d="M325.18,1200.75s-21.11,7.14-19.46,11.76S310.29,1207.25,325.18,1200.75Z"/><path class="at" d="M328.44,1210.07s-21.11,7.15-19.46,11.77S313.55,1216.58,328.44,1210.07Z"/><path class="at" d="M388.61,1171.3s-14.38,17-10.58,20.13S379.23,1184.57,388.61,1171.3Z"/><path class="at" d="M391,1115.37s-21.91,4.13-20.92,8.93S375.3,1119.74,391,1115.37Z"/><path class="at" d="M375.07,1131.89s-22.18-2.24-22.59,2.65S358.82,1131.65,375.07,1131.89Z"/><path class="at" d="M329.34,1155.76s-21.11,7.15-19.46,11.77S314.45,1162.27,329.34,1155.76Z"/><path class="at" d="M329.34,1184.5s-21.11,7.15-19.46,11.77S314.45,1191,329.34,1184.5Z"/><path class="at" d="M302.89,1219.56s-21.12,7.15-19.47,11.77S288,1226.07,302.89,1219.56Z"/><path class="at" d="M345.78,1218.06s-21.11,7.14-19.46,11.76S330.89,1224.57,345.78,1218.06Z"/><path class="at" d="M373.57,1207.22s-21.11,7.15-19.47,11.77S358.68,1213.73,373.57,1207.22Z"/><path class="at" d="M371.93,1150.71s-21.11,7.15-19.46,11.77S357,1157.22,371.93,1150.71Z"/><path class="at" d="M360.63,1150s-9.29,3.14-8.56,5.17S354.08,1152.81,360.63,1150Z"/><path class="at" d="M375,1159.39s-9.29,3.14-8.56,5.18S368.46,1162.25,375,1159.39Z"/><path class="at" d="M332.59,1162.24s-9.28,3.14-8.56,5.17S326,1165.1,332.59,1162.24Z"/><path class="at" d="M313.35,1154.34s-9.29,3.14-8.56,5.17S306.8,1157.2,313.35,1154.34Z"/><path class="at" d="M307.19,1171.55s-9.29,3.14-8.56,5.17S300.64,1174.41,307.19,1171.55Z"/><path class="at" d="M290.79,1204.37s-9.28,3.15-8.56,5.18S284.24,1207.24,290.79,1204.37Z"/><path class="at" d="M283.89,1179.13s-9.29,3.15-8.56,5.18S277.34,1182,283.89,1179.13Z"/><path class="at" d="M323,1177.31s-9.29,3.14-8.56,5.17S316.42,1180.17,323,1177.31Z"/><path class="at" d="M345.37,1175.18s-9.29,3.14-8.56,5.17S338.82,1178,345.37,1175.18Z"/><path class="at" d="M366.45,1181.65s-13.95,4.73-12.86,7.78S356.61,1186,366.45,1181.65Z"/><path class="at" d="M332.59,1190.21s-9.28,3.15-8.56,5.18S326,1193.08,332.59,1190.21Z"/><path class="at" d="M339.5,1202.65s-9.29,3.14-8.57,5.17S333,1205.51,339.5,1202.65Z"/><path class="at" d="M300.68,1213.7s-9.29,3.14-8.56,5.18S294.13,1216.56,300.68,1213.7Z"/><path class="at" d="M297.41,1160.82s-9.29,3.14-8.56,5.17S290.86,1163.68,297.41,1160.82Z"/><path class="at" d="M319.7,1135.91s-9.28,3.14-8.56,5.17S313.15,1138.77,319.7,1135.91Z"/><path class="at" d="M306.16,1140.51s-9.29,3.14-8.56,5.18S299.61,1143.37,306.16,1140.51Z"/><path class="at" d="M281.8,1163.67s-9.29,3.14-8.56,5.17S275.25,1166.53,281.8,1163.67Z"/><path class="at" d="M366.72,1168.26s-21.12,7.15-19.47,11.77S351.83,1174.77,366.72,1168.26Z"/><path class="at" d="M395.63,1144.89s-21.12,7.15-19.47,11.77S380.74,1151.4,395.63,1144.89Z"/><path class="at" d="M342.1,1166s-15.37,7.31-13.68,10.54S331.4,1172.23,342.1,1166Z"/><path class="at" d="M352.76,1202.65s-15.36,7.31-13.67,10.54S342.06,1208.88,352.76,1202.65Z"/><path class="at" d="M306.92,1187.84s-15.37,7.31-13.68,10.54S296.22,1194.07,306.92,1187.84Z"/><path class="at" d="M286.49,1199.21s-15.37,7.31-13.67,10.54S275.79,1205.44,286.49,1199.21Z"/><path class="at" d="M347,1187.84s-15.37,7.31-13.68,10.54S336.33,1194.07,347,1187.84Z"/><path class="at" d="M356.33,1138.75s-22.09,3-21.36,7.83S340.47,1142.29,356.33,1138.75Z"/><path class="at" d="M414.85,1128.3s-20.46-8.84-22.33-4.31S399.44,1123.15,414.85,1128.3Z"/><path class="at" d="M450.68,1147.27s-18.41-12.58-21.11-8.48S436.52,1139.28,450.68,1147.27Z"/><path class="at" d="M399.55,1132.2s-22.09,3-21.36,7.83S383.69,1135.74,399.55,1132.2Z"/><path class="at" d="M414.1,1120.51s-17.61-13.66-20.55-9.74S400.46,1111.68,414.1,1120.51Z"/><path class="at" d="M437.2,1122s-17.62-13.65-20.56-9.73S423.55,1113.14,437.2,1122Z"/><path class="at" d="M448.43,1126.7s-13.39-17.82-17.26-14.81S437.59,1114.59,448.43,1126.7Z"/><path class="at" d="M454.2,1137.73s-17.88-13.31-20.74-9.33S440.38,1129.18,454.2,1137.73Z"/><path class="at" d="M464.59,1159.75s-9.64-20.1-14-17.91S456.33,1145.75,464.59,1159.75Z"/><path class="at" d="M430.34,1130.15s-13.67-10.59-15.95-7.55S419.75,1123.31,430.34,1130.15Z"/><path class="at" d="M429,1138s-13.67-10.6-16-7.55S418.39,1131.13,429,1138Z"/><path class="at" d="M418.73,1142s-13.67-10.6-16-7.55S408.14,1135.17,418.73,1142Z"/><path class="at" d="M459.11,1137s-6.47-7.5-8.1-6S453.94,1132,459.11,1137Z"/><path class="at" d="M470.53,1151.08s-6.47-7.5-8.09-6S465.37,1146,470.53,1151.08Z"/><path class="at" d="M434.43,1126.66s-8.1-6.29-9.46-4.48S428.15,1122.6,434.43,1126.66Z"/><path class="at" d="M357,1124s-16.14,5.46-14.88,9S345.6,1129,357,1124Z"/><path class="at" d="M292.08,1184.5s-21.11,7.15-19.46,11.77S277.19,1191,292.08,1184.5Z"/><path class="c" d="M80,1876.67l8.54-189.74,124.85-18.13s74.92-110.69,75.54-121.92S405.35,1530,405.35,1530l16.38-95.43L460,1378.47h84.89l56.3,185.25,110.82,5.61,15.32,110.8L806,1950.81l-91.58,95.27-595.13-26.15Z"/><polygon class="au" points="460.04 1378.47 470.55 1410.75 421.73 1434.61 460.04 1378.47"/><path class="au" d="M416.87,1528.63l-33.35,33.69H305.86l-19.77-18.25S337.94,1523,416.87,1528.63Z"/><polygon class="av" points="305.87 1562.32 277.9 1875.39 405.35 1878.1 383.52 1562.32 305.87 1562.32"/><polygon class="au" points="601.23 1563.72 577.21 1596 651.59 1612.17 712.05 1569.33 601.23 1563.72"/><polygon class="av" points="651.59 1612.17 718.03 1955.07 562.86 1910.28 577.21 1596 651.59 1612.17"/><polygon class="au" points="327.71 1712.27 274.52 1774.09 224.15 1777.69 226.44 1726.98 327.71 1712.27"/><path class="au" d="M359.4,1891.74c-23.83-4.48-39.88-23.66-61.21-25.24s-45.15,12.42-62.62,23.56-33.1,15-28.69,27.61,12.07,14,59.21,11.37S401.37,1899.63,359.4,1891.74Z"/><path class="au" d="M488.39,1891.31s15.68-19.29,31.28-17,7.54,17.78,7.54,17.78,34.93-11.45,31.14,9.23c0,0,32-21.08,50.54-10,16.27,9.74-13.11,17.48-13.11,17.48s31.92-10.76,30.87,7.29S494.13,1930.6,488.39,1891.31Z"/><path class="c" d="M416.51,1888c-217.79,4.68-392.22,86.31-393.2,148.07-.77,49,262.41,54.08,386.21,53.09,136.8-1.1,403-10.42,403.76-60.87C814.24,1965.57,559.9,1884.87,416.51,1888Z"/><g class="aw"><path class="au" d="M403.48,1868.58c-184.87,3.66-332.89,69.94-333.69,120.18-.62,39.83,222.78,44.17,327.86,43.45,116.12-.8,342.07-17.23,342.7-58.27C741.12,1923,525.19,1866.18,403.48,1868.58Z"/></g><path class="c" d="M477,1902.57c-73.47,2.55-132.44,39.35-132.87,66.91-.34,21.85,88.42,23.57,130.18,22.87,46.14-.78,136-10.47,136.31-33C611,1931.4,525.35,1900.89,477,1902.57Z"/><path class="au" d="M366.74,1991.73s-17.95-15.79-26.11-.51S362,1995.65,366.74,1991.73Z"/><path class="au" d="M499.93,2028.55s28.4,19.78,43.06,19,16.39-17.85,16.39-17.85,30.85,8.78,50.37-10.68C620.61,2008.2,543.11,1999.65,499.93,2028.55Z"/><path class="au" d="M704.23,1999.8s28.41,10.22,35.94,5.75-4.42-15.31-4.42-15.31,28.45-3.73,20.33-18.22-24.74-13.27-24.74-13.27S684.75,1985.32,704.23,1999.8Z"/><path class="c" d="M322.13,2047.58s43.56-19.3,58.25-27.63,41.64-12.27,64.19,3.5,28-2.27,43.82-3.5,44.48,20.07,42.38,34.26S298.85,2085.91,322.13,2047.58Z"/><path class="au" d="M364.14,2028.24s-32.72,19.66-50.91,24.4-62.25,15.77-80.44,0-44.77,4.88-66.45-5.06-39.87-27.19-56-27.63-36.95.53-38.48-13.51,12.6-29.79,28.68-23.74S324.12,1985.69,364.14,2028.24Z"/><path class="au" d="M111.08,2028.24C90,2019.6,76.8,2037.8,95,2047.58S134.48,2037.82,111.08,2028.24Z"/><path class="au" d="M229.53,1911.8s-37.72,10.51-56.2,7.54-63,8-82.54,19-31.17,22.65-21,50.42,47.58,19.21,60.17-4.2,21.69-39.06,37.78-41.1S275.24,1909.77,229.53,1911.8Z"/><path class="au" d="M351.46,1822.28s-37.72,10.51-56.21,7.55-62.95,8-82.54,19-31.17,22.66-21,50.43,47.57,19.2,60.16-4.21S273.57,1856,289.66,1854,397.17,1820.25,351.46,1822.28Z"/><path class="au" d="M248.59,1865.45s-37.71,10.51-56.2,7.55-62.95,8-82.54,19-31.17,22.65-21,50.43,47.58,19.2,60.17-4.21,21.69-39.06,37.78-41.09S294.3,1863.42,248.59,1865.45Z"/><path class="au" d="M91.7,1793s-1.51,97.48,5.72,116.89,41.82-.49,60.23,12.82,58.75,9.4,74.66-14.7,24.43-59,29-85.85c8-47.48-33.49-24.39-43.31-38.91S66.68,1749.85,91.7,1793Z"/><path class="c" d="M638.16,1969.48c-17.52,4.49-74.31,1.79-49.14-21.93,0,0-8.35-40.34,19.87-56.22s13.29-44.15,36.6-44.74,69.1,39.85,79.68,91.75S689.7,1956.28,638.16,1969.48Z"/><path class="au" d="M641.6,1953.23c-17.81,2.69-77.75,18-52.58-5.68,0,0-2.57-31.34,25.64-47.23s7.52-37.76,30.83-38.36,40.07,2.76,50.65,54.66S667.1,1949.38,641.6,1953.23Z"/><path class="au" d="M452.79,1991.32C430.53,1981.26,493.47,1978,514,1973s58.7-23.32,83-12.52,37.43,13,43.44,18.68S495.12,2010.45,452.79,1991.32Z"/><path class="au" d="M382.18,2015.21c-21.38-6.43-34.47,13.92-27.16,21.76C370.76,2053.86,424.08,2027.83,382.18,2015.21Z"/><path class="au" d="M318,1958.65s19,1.22,30.22-2.48,13.66-8,22.23-8.62,15.3,8.37,22.77,8.62,14.21-11,21.22-13.08S440.84,1956.93,437,1963s-39.92,18.79-51,16.11-30.71,7.74-45.4,0S303.83,1964,318,1958.65Z"/><path class="ax" d="M444.57,1956.08s5.77-36.13,11.88-38,68-15.32,88.66-3.17c0,0,9.25,19.44,12.56,30.45,0,0-4.57,14.77-22.85,17.35S462.55,1973.09,444.57,1956.08Z"/><path class="ay" d="M452.79,1939.48s3.66-18.85,8.55-20,59.41-9.39,76.47-4c0,0,5,1.68,8.09,15,0,0-5.18,6.66-19.9,8.74S467.82,1947.5,452.79,1939.48Z"/><path class="au" d="M494.27,1902.74c-30.49,2.06-35.71,7.86-42.51,13.41s-7.4,17-3.18,20.16,18.77-9.34,27.17-7.76,7.84,12.79,25.37,14.54,21.82-11.91,29.93-14.54,15.27,10.57,17.56-6S528.6,1900.42,494.27,1902.74Z"/><path class="ay" d="M223.68,1962.24s16.78-23,25.71-24.71,58.22-3.06,77.24,6.18c0,0,10.7,16.08,7.89,20.69S238.54,1975.59,223.68,1962.24Z"/><path class="au" d="M273.31,1928.55c-29,1.4-39.61,8.24-49.63,17.52s6.52,18.21,16.1,18.63c20.89.92,19-12.31,33.53-4.25s28.42,6.39,44.82,5.17,34.41-8.74,24.23-18.36S298.06,1927.36,273.31,1928.55Z"/><path class="au" d="M189.42,2003c5-11.16,16.14-16.22,31.15-14.42s32-9,45.52-4,39.45,10.7,51.34,6.26,37.88-6.53,44.82,8.32-24.93,24.31-40.12,19.58-45.12-5.52-56-3.15S181.73,2020.3,189.42,2003Z"/><path class="ax" d="M405.2,1974.4s4.75-26.83,10-28.69,33.1-5.23,44.3.87,9.11,29.05,9.11,29.05-8,9.17-36.65,10.57S405.2,1974.4,405.2,1974.4Z"/><path class="ay" d="M411.11,1962.64s3.78-14.33,8.07-15.29,27.09-2.62,36.29.71,7.59,15.59,7.59,15.59-6.48,4.87-30,5.46S411.11,1962.64,411.11,1962.64Z"/><path class="au" d="M406.1,1955.89s4.18-17.33,27-16.19,35.75.7,37.84,13.53-3,10.47-11.49,7.22-21.63-8.08-25.88-4.28S402.75,1967.83,406.1,1955.89Z"/><path class="az" d="M339.49,1930.77c-.44.39-4.24,18.17,5.84,26.85,4,3.43,4.14,6.15,9.56,7.11s12.27,3.66,13.23,5.89,3,4.78,1.12,5.1-3.83.32-5.58.8-8.69,0-19.33,0-24.5-22.77-24.5-22.77l-1-10.54,11.48-13.71Z"/><path class="ba" d="M329.26,1976.62a3.32,3.32,0,0,1-2.34-5.11c1.86-3,7.27-2,11.24-3.77,6.07-2.75,9.43-6.08,16.61-4.65,16.92,3.37,16.76,13.29,14.42,13.89-3.44.89-20-.2-28.35,0A79,79,0,0,1,329.26,1976.62Z"/><path class="az" d="M232.44,1964.49c-.12,2,.53,2.53,0,6.16s-3.18,5.15-1.06,6.15,31.4,0,39.69,0,7-3.17,3.81-5.77c-6.74-5.48-17.22-6.11-18.1-7.7s2.56-14.56,2.56-14.56l-15.26,4-13.51,11.74Z"/><path class="bb" d="M363.94,1777c3.83-7.21,12.39-11.94,20.5-19.15s33.58-18.48,29.75-11.27-11.94,12.62-17.35,19.6-7.22,12-9.29,21.25c-3.21,14.25-15.86,27.12-15.86,27.12s-5.95,1.21-10.91-4.43l-4-7.17a30.05,30.05,0,0,1-2.57-10.82,34,34,0,0,1,.73-10.28Z"/><path class="bc" d="M370.1,1808.63a8.13,8.13,0,0,1-8.45-8.24c.17-7.22,6.79-34.47,5.22-48.44s-2.56-33-12.78-31.68c-8,1-30.45,27.5-18.09,72.91,2.83,10.41,1.12,25.24.22,30.88l0,.16a15.64,15.64,0,0,1-11.64,12.36c-5.36,1.36-12.89,2.75-19.65,2.12-12.17-1.12-44.17-6.22-66.25.16s-81.72,24.48-84.38,69c-1,17.33,2.58,31.11,8.66,41.47s11,10.37,13.75,18.48-.45,8.79,5,9.24,16.9,2,27.26,0,9.69-2.7,16.23-6.53,5.86-7,19.6-10.82,20.73-5.63,27.27-10.59,19.91-8.65,22.08-5.41c4.65,7,5,16.68,9.69,19.83s-.1,10.6,6.66,12.4,25.46,1.58,33.35,1.58.1-10.82-5.76-12.63-15.84-11.43-13.58-16.61,6.37-7.5,11.33-13.81,18.93-13.07,28.39-27,10.14-10.59,13.52-22.76,4.06-17.35,4.06-17.35,15.28.84,22.63-2.22c6.13-2.54,9.37-3.77,10-11.14s3.87-7.93,1.36-14.13c-4.48-11-8-13.87-16.35-21.53s-10.92-7.76-18.13-9.12A55.83,55.83,0,0,0,370.1,1808.63Z"/><path class="bb" d="M355.08,1780.29a91,91,0,0,1,5.72-25.65,23.2,23.2,0,0,0,1.91-7.23c0-4.65-1.65-9.5-6.5-10.32s-12.69,5.36-13.83,11.2-1.73,8.09-1.75,13.77c-.06,18.55,7.43,32.51,9.49,34.16s3.09.41,4-5.78C354.42,1788.12,354.77,1784.23,355.08,1780.29Z"/><path class="bd" d="M369.92,1820.34c-1.15-.66,4.39-2.93,8.44-1.66s5.6,5.66,6.24,8.44a3.93,3.93,0,0,0-2.86.3c-1.66.76-5.3,2.68-8.39,0S370.88,1820.9,369.92,1820.34Z"/><circle class="y" cx="378.23" cy="1823.21" r="1.05"/><path class="bb" d="M413.31,1849.79c-.34-3,.88-2.58-.89-5s-1.49-.27-3.26-1a16.86,16.86,0,0,1-3-1.5s.14,4.91,1.5,6S413.31,1849.79,413.31,1849.79Z"/><path class="ba" d="M381.74,1867.32s-3.46.86-8.8-3-9.68-12.4-16.53-14.54-15.84,0-15.84,0c6.54,0,16.2.94,17.27,6.68s-2.33,9.82,5.47,17.71c3.49,3.53,5.59,15.73,9.51,21.7,2-2.64,3.06-4.71,4.86-11.21,3.38-12.17,4.06-17.35,4.06-17.35Z"/><path class="ba" d="M181.64,1977.06c-.57-3.16.73-9.81,6.8-12.56s15.7-8.16,22.71-6.07c12,3.57,13.6,18.89,10.13,19.64s-20,0-28.35,0S181.64,1977.06,181.64,1977.06Z"/><path class="be" d="M338,1964.89l-.08,0a13.59,13.59,0,0,0-7.08.28c-3.31,1-6.08,2.88-10.2,1.9s-7.15-1.08-9.7-.2-5.58-1.51-5.69-1.7h0c2.07,3.58-.63,9.25,5.16,10.79,6.76,1.8,25.46,1.58,33.35,1.58S343.88,1966.7,338,1964.89Z"/><path class="ba" d="M287.59,1894.56c-10,8.94-15.23,18.32-11.58,30.17s2.52,17.08-5.6,22.74-21.31,11-21.34,11c10.95-3.06,17.12-5,22.93-9.38,6.53-5,19.91-8.65,22.08-5.41a22,22,0,0,1,1.34,2.31h0c-1.34-2.3-1.81-5.48-6-10s-6.49-14.66-4.85-21.78,13.25-18.35,13.43-30.39-1.67-13-1.67-13S297.62,1885.62,287.59,1894.56Z"/><path class="i" d="M309.39,533.91s-3.64-20.22-7.5-21.25S259,504.09,246,510.89c0,0-5.84,10.88-7.93,17,0,0,2.88,8.27,14.42,9.71S298,543.42,309.39,533.91Z"/><path class="h" d="M304.2,524.62s-2.3-10.55-5.39-11.22-37.48-5.25-48.25-2.22c0,0-3.18.94-5.11,8.38,0,0,3.27,3.73,12.56,4.9S294.72,529.11,304.2,524.62Z"/><path class="i" d="M224.32,530.55s-4.75-26.39-9.78-27.74-56-11.19-73-2.31c0,0-7.62,14.2-10.34,22.24,0,0,3.76,10.79,18.82,12.67S209.51,543,224.32,530.55Z"/><path class="h" d="M217.55,518.42s-3-13.76-7-14.64-48.92-6.85-63-2.9c0,0-4.15,1.22-6.67,10.95,0,0,4.27,4.86,16.39,6.38S205.17,524.28,217.55,518.42Z"/></svg>