<svg xmlns="http://www.w3.org/2000/svg" xmlns:xlink="http://www.w3.org/1999/xlink" viewBox="0 0 819.47 824"><defs><style>.a{fill:none;}.b{fill:#2e959a;}.c{clip-path:url(#a);}.d{fill:#ecaf46;}.e{fill:#1c4a70;}.f{fill:#15334a;}.g{fill:#ac7830;}.h{fill:#0e0d11;}.i{fill:#4b5e69;}.j{fill:#5f6970;}.k{fill:#1f1f1f;}.l{fill:#fff;}.m{fill:#bcacaa;}.n{fill:#2b7185;}.o{fill:#a0792f;}.p{fill:#755221;}.q{fill:#5db1c7;}.r{fill:#42899a;}.s{fill:#356c7a;}.t{clip-path:url(#b);}.u{fill:#714f9a;}.v{clip-path:url(#c);}.w{fill:#dfd8d5;}.x{fill:#292e36;}.y{fill:#1e1f26;}.z{fill:#626167;}.aa{fill:#a6948e;}.ab{fill:#33384a;}.ac{fill:#989390;}.ad{fill:#252b3b;}.ae{fill:#1b202d;}.af{fill:#0d0e13;}.ag{clip-path:url(#d);}.ah{clip-path:url(#e);}.ai{fill:#c83517;}.aj{fill:#d85e27;}.ak{fill:#942614;}.al{fill:#a1411c;}.am{fill:#0c629e;}.an{fill:#090f1b;}.ao{fill:#2f3545;}.ap{fill:#6c738b;}.aq{fill:#22386f;}.ar{fill:#af2e18;}.as{fill:#5d5e61;}.at{fill:#21315d;}.au{clip-path:url(#f);}.av{fill:#fbdd01;}.aw{fill:#dcbc02;}.ax{fill:#332b21;}.ay{fill:#4a3d38;}.az{fill:#6e6152;}.ba{fill:#aa9313;}.bb{fill:#958018;}.bc{fill:#a29559;}.bd{fill:#625445;}.be{fill:#00737c;}.bf{fill:#563c75;}</style><clipPath id="a"><path class="a" d="M9.91,213.92C9.91,313.17,84.7,395,181,406h44.47c96.3-11,171.09-92.81,171.09-192.06,0-106.77-86.55-193.33-193.32-193.33S9.91,107.15,9.91,213.92"/></clipPath><clipPath id="b"><path class="a" d="M610.65,20.59c-106.77,0-193.33,86.56-193.33,193.33s86.56,193.33,193.33,193.33S804,320.69,804,213.92,717.42,20.59,610.65,20.59Z"/></clipPath><clipPath id="c"><path class="a" d="M417.32,213.92c0,96.1,70.12,175.83,162,190.8H642A193.48,193.48,0,0,0,801.45,245.28V182.57c-15-91.86-94.71-162-190.8-162-106.77,0-193.33,86.56-193.33,193.33"/></clipPath><clipPath id="d"><path class="a" d="M9.91,620.47c0,106.77,86.56,193.33,193.33,193.33s193.32-86.56,193.32-193.33S310,427.15,203.24,427.15,9.91,513.7,9.91,620.47"/></clipPath><clipPath id="e"><path class="a" d="M9.91,620.47c0,96.1,70.11,175.83,162,190.8h62.68c91.87-15,162-94.7,162-190.8,0-106.77-86.55-193.32-193.32-193.32S9.91,513.7,9.91,620.47"/></clipPath><clipPath id="f"><path class="a" d="M415.17,620.47c0,99.26,74.8,181,171.11,192.07h44.43A193.45,193.45,0,0,0,799.3,651.81V589.13c-15-91.87-94.7-162-190.8-162-106.77,0-193.33,86.55-193.33,193.32"/></clipPath></defs><title>M16_S1_evolucion_y_procesos_biologicos_IMG_3</title><path class="b" d="M799.14,620.47c0,106.77-86.56,193.33-193.33,193.33S412.48,727.24,412.48,620.47,499,427.14,605.81,427.14,799.14,513.7,799.14,620.47"/><path class="b" d="M396.56,620.47c0,106.77-86.55,193.33-193.32,193.33S9.91,727.24,9.91,620.47,96.46,427.14,203.24,427.14,396.56,513.7,396.56,620.47"/><path class="b" d="M396.56,213.92c0,106.77-86.55,193.33-193.32,193.33S9.91,320.69,9.91,213.92,96.46,20.59,203.24,20.59s193.32,86.56,193.32,193.33"/><g class="c"><path class="d" d="M787.1,405.07s9.83,6.63,6.75,14.47c-1.61,4.07-6.69,8.47-18.43,12.37-6,2-41.7,12.45-50.72,5.45,8.5,18.12-73,39.08-101.28,46.92-67.54,18.64-109.9,22.79-190.83,14.09-50.28-5.39-102.81-28.94-147.11-60.51a366,366,0,0,1-54.83-47.73,361,361,0,0,1-42.44-55.27,352,352,0,0,1-22.87-43.08c-1.71-3.85-3.37-7.75-4.93-11.7a323.16,323.16,0,0,1-16-51.95q-.88-3.93-1.62-7.86c-7.28-38.38-14.76-76.69,17.43-105.86,23.09-21,57.15-30,87.52-27.24,23.41,2.12,45.42,11.28,65.43,23.27,20.55,12.2,37.15,30,57.31,43.18a149.43,149.43,0,0,0,18,9.9c15.67,7.29,32.23,11.82,48.92,16,17.52,4.39,35.28,8.33,52.48,14.69C596,233.44,602.2,296,709.12,333.16a38.62,38.62,0,0,0-4,4.11c26.08,5.44,77.33,17.1,102.51,28.64l1.44.68c33,16.05,28.21,46-22,38.48"/><path class="e" d="M388.4,163.52a140.11,140.11,0,0,1-20.33,21.68c-51,45.07-115.28,73.22-181.47,88.77-8.74,2-17.52,3.93-26.19,6.11a323.16,323.16,0,0,1-16-51.95q-.88-3.93-1.62-7.86c-7.28-38.37-14.76-76.69,17.43-105.86,23.09-21,57.15-30,87.52-27.24,23.41,2.12,45.42,11.28,65.43,23.27,20.55,12.2,37.15,30,57.31,43.18a149.43,149.43,0,0,0,18,9.9"/><path class="f" d="M331,122.88c-17.88.61-36,3.29-53.63,6.09-8.94,1.4-18,2.84-27,2.84a65.94,65.94,0,0,1-13.72-1.34c-9.63-2-19.62-6.59-29.07-6.59a22.91,22.91,0,0,0-9.83,2.06c-13.23,6.16-23.71,34.87-23.79,48.76,0,8.43,4.32,11.36,10.57,11.36,11.74,0,30.1-10.34,38.3-14A535.75,535.75,0,0,1,345,134.2ZM207.49,164.36c-9.65,0-17.63-6.45-18.05-14.81-.45-8.68,7.42-16.14,17.56-16.66.37,0,.75,0,1.12,0,9.65,0,17.63,6.45,18,14.81.45,8.68-7.42,16.14-17.56,16.66-.37,0-.75,0-1.12,0"/><path class="g" d="M345.83,343.84l.39.21.06-.07-.45-.14"/><path class="h" d="M137.53,194.77l-16.86,7.15s3,4,12.18,9.74,35.3,6.44,35.3,6.44S186.71,213,189.45,199Z"/><path class="i" d="M120.67,201.92s20.33-1.57,37.45-1.38A270.72,270.72,0,0,0,189.45,199s-7-25.06-27-25.55-37.28,16.87-40,20.23-1.74,8.22-1.74,8.22"/><path class="j" d="M208.12,132.86c-.37,0-.75,0-1.12,0-10.14.52-18,8-17.56,16.66.42,8.36,8.4,14.81,18.05,14.81.37,0,.75,0,1.12,0,10.15-.52,18-8,17.56-16.66-.42-8.36-8.4-14.81-18-14.81"/><path class="k" d="M222.06,147.88c.34,6.74-5.76,12.52-13.63,12.93s-14.53-4.73-14.88-11.47,5.76-12.52,13.63-12.93,14.53,4.73,14.88,11.47"/><path class="l" d="M218.25,143.1c.16,3.13-2.67,5.82-6.33,6s-6.75-2.19-6.91-5.32,2.67-5.82,6.33-6,6.75,2.19,6.91,5.32"/><path class="m" d="M144.35,228.13a326.52,326.52,0,0,0,21,63.65c-1.71-3.85-3.37-7.75-4.93-11.71a323.78,323.78,0,0,1-16.06-51.94"/><path class="g" d="M144.35,228.13h0a323.78,323.78,0,0,0,16.06,51.94c1.56,4,3.22,7.86,4.93,11.71a331.54,331.54,0,0,0,60.58-28.66c-13,4.14-26.11,7.75-39.33,10.85-8.73,2-17.51,3.93-26.18,6.1a323.78,323.78,0,0,1-16.06-51.94"/><path class="f" d="M333.14,159.78a276.37,276.37,0,0,1-141.65,83.93q24.19-14.69,48.33-29.32a201.12,201.12,0,0,1-75.72,14.7c-6.59,0-13.19-.31-19.74-1a322.85,322.85,0,0,0,16,51.95c8.67-2.19,17.45-4.07,26.19-6.11q19.82-4.65,39.32-10.85,12.29-7.41,23.92-15.85c7-17.16,23.51-33.5,34.92-43.27a180.46,180.46,0,0,1,32.82-22.27q8.24-10.65,15.56-21.95"/><path class="n" d="M819.22,367.64c-6.87-.73-21.49,2-47.39,4.7-40.13,4.2-107.34,8.4-214.77-.18-4.14-.31-8.34-.66-12.63-1C463.1,364.1,376,332.44,376,332.44S368.09,232.13,496.5,212.1c58.65-9.15,101.23,25.53,101.23,25.53s37.55,27,75.29,49.28A411.26,411.26,0,0,0,710.78,307c44.91,20.47,41.09,31.62,41.09,31.62l43.82,13.17c43.83,13.17,41.44,17.7,23.53,15.81"/><path class="o" d="M260.79,291.66c10.63,18.65,38.4,34,55.58,41.17,7.41,3.11,17.84,7.29,29.46,11a232.72,232.72,0,0,1-27-17c-4.65-1.86-8.81-3.65-12.32-5.19-1.34-.61-2.74-1.22-4.25-2-12.86-6.06-29.7-15.95-41.49-28"/><path class="p" d="M318.85,326.88a231.38,231.38,0,0,0,27,17l.45.14q2.72-3,5.31-6.09a274.53,274.53,0,0,1-32.74-11"/><path class="q" d="M597.73,237.63s-11,1.74-31.42,1.16a16.29,16.29,0,0,1-2.3-.17c-19.68-1.41-45.93-13.7-47.43-14.36a52.47,52.47,0,0,1,5.77,10.14v0c4.06,9.38,5.76,22.32-13,25.61-.86.14-1.72.32-2.53.4h-.05c-26.72,4.19-34.15-3.69-34.9-4.53a33.6,33.6,0,0,1,3.3,10.48v.05c1,7-.38,16-10.65,22.27-7.68,4.62-17.92,6.37-27.49,6.78A119.1,119.1,0,0,1,422,295.2c-1.07-.06-2-.12-3-.24-1.53-.15-3-.3-4.14-.46-1.44-.15-2.57-.37-3.34-.49h-.1c-.46-.08-.82-.12-1-.17l.26.2a7.07,7.07,0,0,1,.89.68l.68.48c.42.35,1,.78,1.53,1.32a24,24,0,0,1,2.75,2.71,7.47,7.47,0,0,1,.9,1,9.85,9.85,0,0,1,1.29,1.63,24.1,24.1,0,0,1,1.57,2.44,22.53,22.53,0,0,1,1.32,2.7v.06a19.16,19.16,0,0,1-.88,16.14C402.26,361,334,333.73,306.53,321.69c-1.34-.61-2.74-1.22-4.25-2-18.78-8.85-46.08-25.89-53.7-46a31.83,31.83,0,0,1-1.47-5.15c-4.8-23.78,21.53-50.71,37.65-64.51,48.73-41.72,119.17-54.87,179.34-40.82a331.1,331.1,0,0,1,60,19.76c55.42,24.77,73.66,54.69,73.66,54.69"/><path class="r" d="M393,225a58.4,58.4,0,0,1-23.4,40.8,57,57,0,0,1-18.75,8.87c9.34,2.58,21.18,5.77,32.92,8.62a192.17,192.17,0,0,0,12.4-56.64L393,225M320,274.54a58.75,58.75,0,0,1-17.76,45.17c1.51.76,2.91,1.37,4.25,2,10.64,4.67,27.42,11.63,45.06,16.2a193.32,193.32,0,0,0,29.8-48.75l-.14,0c-15.11-3-36.16-6.53-54.62-13.13a53.42,53.42,0,0,1-6.59-1.44"/><path class="r" d="M304.3,265.18A100.61,100.61,0,0,0,326.63,276a57.45,57.45,0,0,0,8.88.69,59.18,59.18,0,0,0,15.32-2L344.92,273c-18.86-5.22-40.62-7.83-40.62-7.83"/><path class="s" d="M350.83,274.65a59.18,59.18,0,0,1-15.32,2,57.45,57.45,0,0,1-8.88-.69c18.46,6.6,39.51,10.16,54.62,13.13l.14,0c.82-1.95,1.61-3.9,2.36-5.87-11.74-2.85-23.58-6-32.92-8.62"/><path class="r" d="M376.33,215.65a4.26,4.26,0,0,0-.79,0c4.13,2.18,10.23,5.51,17.44,9.28.13-1.2.21-2.41.25-3.62a33.35,33.35,0,0,0,3.11,1.92c.05-.93.08-1.87.11-2.8-12.7-4.33-18.24-4.83-20.12-4.83"/><path class="s" d="M393.23,221.36c0,1.21-.12,2.42-.25,3.62l3.17,1.65c.08-1.12.14-2.23.19-3.35a33.35,33.35,0,0,1-3.11-1.92"/></g><g class="t"><rect class="u" x="414.8" y="18.07" width="386.65" height="386.65"/></g><g class="v"><path class="w" d="M665.68,289.13q-10.56,3.93-21.32,7.36a331.54,331.54,0,0,1-60.58,28.66,352,352,0,0,0,22.87,43.08,360.2,360.2,0,0,0,27,37.66,192.35,192.35,0,0,0,97.87-41.1c-17.24-7.68-42.32-22.24-52.31-39.76-5.44-5.58-9.81-11.63-12.21-18a31.72,31.72,0,0,1-1.47-5.14,32.45,32.45,0,0,1,.13-12.76"/><path class="x" d="M806.84,196.89a140.11,140.11,0,0,1-20.33,21.68c-51,45.08-115.28,73.22-181.48,88.77-8.72,2-17.5,3.93-26.18,6.11a323.75,323.75,0,0,1-16.05-51.94q-.88-3.93-1.61-7.87c-7.29-38.37-14.77-76.69,17.42-105.86,23.09-21,57.15-30,87.53-27.24,23.41,2.12,45.41,11.29,65.42,23.27,20.55,12.2,37.16,30,57.31,43.18a149.43,149.43,0,0,0,18,9.9"/><path class="y" d="M749.48,156.25c-17.88.61-36,3.29-53.63,6.09-8.94,1.4-18,2.84-27,2.84a65.88,65.88,0,0,1-13.72-1.34c-9.64-2-19.63-6.59-29.07-6.59a22.93,22.93,0,0,0-9.84,2.06c-13.23,6.17-23.71,34.87-23.79,48.77,0,8.43,4.33,11.36,10.57,11.36,11.74,0,30.1-10.34,38.3-14a535.38,535.38,0,0,1,122.16-37.86ZM625.94,197.73c-9.65,0-17.63-6.44-18.06-14.81-.45-8.68,7.42-16.14,17.56-16.66.38,0,.75,0,1.12,0,9.65,0,17.63,6.44,18.06,14.8.44,8.68-7.42,16.14-17.57,16.66q-.56,0-1.11,0"/><path class="z" d="M626.56,166.23l-1.12,0c-10.14.52-18,8-17.56,16.66.43,8.37,8.41,14.81,18.06,14.81q.55,0,1.11,0c10.15-.52,18-8,17.57-16.66-.43-8.36-8.41-14.81-18.06-14.81"/><path class="k" d="M640.5,181.25c.34,6.74-5.76,12.53-13.63,12.93s-14.53-4.73-14.87-11.47,5.75-12.52,13.62-12.92,14.53,4.73,14.88,11.46"/><path class="l" d="M636.69,176.47c.16,3.13-2.67,5.82-6.33,6s-6.75-2.2-6.91-5.33,2.68-5.81,6.33-6,6.75,2.2,6.91,5.32"/><path class="m" d="M562.8,261.51a326.62,326.62,0,0,0,21,63.64c-1.71-3.85-3.37-7.75-4.93-11.7a322.74,322.74,0,0,1-16.05-51.94"/><path class="aa" d="M562.8,261.51h0a322.74,322.74,0,0,0,16.05,51.94c1.56,3.95,3.22,7.85,4.93,11.7a331.54,331.54,0,0,0,60.58-28.66c-13,4.14-26.11,7.75-39.32,10.86-8.73,2-17.52,3.92-26.19,6.1a322.74,322.74,0,0,1-16.05-51.94"/><path class="y" d="M751.58,193.16a276.43,276.43,0,0,1-141.64,83.92q24.18-14.68,48.32-29.32a201.15,201.15,0,0,1-75.73,14.71c-6.59,0-13.18-.32-19.73-1a322.74,322.74,0,0,0,16.05,51.94c8.67-2.18,17.46-4.07,26.19-6.1,13.21-3.11,26.35-6.71,39.32-10.86q12.28-7.41,23.93-15.85c7-17.15,23.5-33.5,34.91-43.26A180.68,180.68,0,0,1,736,215.1q8.24-10.64,15.56-21.94"/><path class="ab" d="M1237.66,401c-17.51-1.85-85.38,18.65-262.16,4.52-4.14-.31-8.33-.66-12.63-1-81.33-7-168.41-38.71-168.41-38.71s-7.93-100.3,120.48-120.34c58.65-9.14,101.23,25.54,101.23,25.54s37.55,27,75.29,49.28a411,411,0,0,0,37.76,20.12c44.91,20.47,41.09,31.63,41.09,31.63l43.82,13.16c43.83,13.18,41.45,17.7,23.53,15.81"/><path class="ac" d="M679.23,325c10,17.52,35.07,32.09,52.31,39.76q2.82-2.25,5.55-4.62c-4.57-1.83-8.66-3.59-12.11-5.1-1.35-.62-2.75-1.23-4.26-2C707.87,347,691,337.14,679.23,325"/><path class="ab" d="M1016.17,271s-11,1.73-31.42,1.16a17.8,17.8,0,0,1-2.29-.18c-19.69-1.41-45.94-13.7-47.44-14.36a52.61,52.61,0,0,1,5.78,10.14v.05c4.07,9.38,5.76,22.32-13,25.62-.86.13-1.72.32-2.53.4h0c-26.72,4.2-34.15-3.69-34.89-4.53a33.42,33.42,0,0,1,3.29,10.49v.05c1,7-.37,16-10.65,22.26-7.68,4.62-17.92,6.37-27.48,6.78a121.26,121.26,0,0,1-15.06-.31c-1.07-.07-2-.13-3-.25-1.53-.15-3-.3-4.14-.46-1.44-.15-2.56-.36-3.33-.49h-.1c-.46-.08-.83-.12-1-.16l.26.19a8.18,8.18,0,0,1,.89.68l.69.49c.41.34.94.78,1.52,1.32a22.38,22.38,0,0,1,2.75,2.7,9,9,0,0,1,.91,1,9.87,9.87,0,0,1,1.28,1.64,25.13,25.13,0,0,1,1.57,2.43,22,22,0,0,1,1.32,2.71v.05a19.17,19.17,0,0,1-.89,16.14c-18.49,37.75-86.8,10.5-114.21-1.54-1.35-.62-2.75-1.23-4.26-2C701.94,344.24,674.64,327.2,667,307a31.55,31.55,0,0,1-1.47-5.15c-4.8-23.78,21.54-50.71,37.65-64.5,48.73-41.73,119.17-54.88,179.34-40.83a332,332,0,0,1,60,19.76c55.42,24.78,73.65,54.7,73.65,54.7"/><path class="ad" d="M782.42,302.73a58.13,58.13,0,0,1-13.15,5.3l8.92,2.43c1.46-2.54,2.88-5.12,4.23-7.73m-43.94,5.19a58.73,58.73,0,0,1-17.76,45.16c1.51.76,2.91,1.37,4.26,2,3.45,1.51,7.54,3.27,12.11,5.1A194.35,194.35,0,0,0,774,317.36a239.91,239.91,0,0,1-28.94-8,57.35,57.35,0,0,1-6.59-1.44"/><path class="ad" d="M722.74,298.55a100.41,100.41,0,0,0,22.33,10.81,58.82,58.82,0,0,0,24.2-1.34c-2.1-.57-4.09-1.13-5.91-1.64-18.85-5.21-40.62-7.83-40.62-7.83"/><path class="ae" d="M769.27,308A59.1,59.1,0,0,1,754,310a57.49,57.49,0,0,1-8.89-.69,238.64,238.64,0,0,0,28.94,8q2.16-3.41,4.18-6.9c-3.15-.85-6.14-1.67-8.92-2.44"/><path class="ad" d="M794.77,249a4.26,4.26,0,0,0-.79,0c1.73.91,3.81,2,6.17,3.3.18-.86.34-1.72.5-2.58a30.06,30.06,0,0,0-5.88-.77"/><path class="af" d="M541,253.73c14.14,3.23,28.67,7.22,37,13.15,0,0,12.67-3.64,14.21-26.68,0,0-7.1-14.15-38-19.61s-63.64,16.78-63.64,14.76c0,0,4.33,6.87,21.32,11.72,7.42,2.12,18.13,4.16,29.09,6.66"/><path class="x" d="M580.47,201s11.13,8.08,11.74,39.21c0,0-79.39-13.34-106.89,0,0,0,2.46-17.83,24.1-27.49C535.68,201,580.47,201,580.47,201"/></g><g class="ag"><rect class="u" x="9.91" y="424.62" width="386.65" height="386.65"/></g><g class="ah"><path class="ai" d="M357.47,808.65c-1.4,18.9,20.79,43.46,37.58,58.28s20.75,31.61,19.76,43.46a97.09,97.09,0,0,0,.14,19.77s2.82,4.93,14.68,4.93,15.8-15.8,22.72-32.6-10.87-23.71-20.75-50.38-5.27-47.72-11.85-59.27c-14.09-24.69-59.35-23.71-62.28,15.81"/><path class="ai" d="M783.87,836.43s9.9,11.85-29.64,21.69c-1.24.3-2.49.65-3.73,1-39.83,11.14-103.73,46.64-184.16,54.35-58.32,5.52-121,6.23-188-16.53a391.51,391.51,0,0,1-87.43-42.74,203.1,203.1,0,0,1-27.5-21.1,166.48,166.48,0,0,1-13.28-13.51c-48.19-54.47-39.18-115.46-46-141.78a28.67,28.67,0,0,0-2.31-6.4c-2.49-4.75-6.34-9.37-10.9-14.23-6.23-6.64-13.69-13.63-20.81-21.81a108.83,108.83,0,0,1-16.18-23.59c-7.23-14.76-11.08-33.07-7-56.9a31.1,31.1,0,0,1,1.84-6.4c6.75-17.25,28-36.81,42.37-42.74,37.58-15.53,73.5-8.53,105,12.51A179.58,179.58,0,0,1,327.48,545c24.71,26.2,41,40.48,68.63,44.93A80.7,80.7,0,0,1,410,593.83c3,1.07,6.17,2.31,9.55,3.68,17.19,7,39.35,18.14,61.7,30.4h.06c25.25,13.93,50.68,29.34,69.4,42,32.72,22.16,112.15,73.73,163.89,105.15,14.22,8.65,26.31,15.7,34.79,20.26,2.61,1.43,4.86,2.61,6.76,3.5,8.24,3.91,15.53,7.47,21.75,10.61H778c16.54,8.18,25.61,13.1,25.61,13.1s0,11.85-19.74,13.87"/><path class="aj" d="M481.29,627.91c-39.18,15-83,18.26-125.36,18.56-10.27,0-20.58,0-30.89-.12-44.48-.38-89.13-.76-132,10.31-.71.18-1.42.35-2.07.53-6.22-6.64-13.69-13.63-20.81-21.81a108.83,108.83,0,0,1-16.18-23.59c-7.23-14.76-11.08-33.07-7-56.9a30.49,30.49,0,0,1,1.84-6.4c6.75-17.25,28-36.81,42.38-42.74,37.57-15.53,73.49-8.53,105,12.51A179.58,179.58,0,0,1,327.48,545c24.72,26.2,41,40.48,68.63,44.93A80.7,80.7,0,0,1,410,593.83c3,1.07,6.17,2.31,9.54,3.68,17.2,7,39.36,18.14,61.71,30.4"/><path class="m" d="M170.11,635.38c12.27,14.17,25.73,24.78,31.71,36-2.49-4.75-6.34-9.37-10.9-14.22-6.23-6.65-13.7-13.64-20.81-21.82"/><path class="ak" d="M170.11,635.38h0c7.11,8.18,14.58,15.17,20.81,21.82,4.56,4.85,8.41,9.47,10.9,14.22a29.17,29.17,0,0,1,2.32,6.4,190.78,190.78,0,0,0,38.64-7,272.12,272.12,0,0,0,60.27-24.62h-2.24c-16.65,0-33.27.29-49.77,1.47a276.47,276.47,0,0,1-34.75,4.42l1-.53c-8.15,1.35-16.24,3-24.28,5.09-.71.17-1.42.35-2.07.54-6.23-6.65-13.7-13.64-20.81-21.82"/><path class="al" d="M262.22,627.44a217.72,217.72,0,0,1-92.11,7.94c7.12,8.18,14.59,15.17,20.81,21.82.65-.19,1.36-.37,2.07-.54,8-2.07,16.13-3.74,24.28-5.09Zm48.08,1.91A281.28,281.28,0,0,1,251,647.68c16.5-1.18,33.12-1.47,49.77-1.47h2.24c4.81-2.7,9.54-5.57,14.15-8.59-2.62-3-4.91-5.76-6.9-8.27"/><path class="am" d="M783.87,836.43s9.9,11.85-29.64,21.69c-1.24.3-2.49.65-3.73,1-39.83,11.14-103.73,46.64-184.16,54.35-58.32,5.52-121,6.23-188-16.53,47.59-.07,95.42-5.28,142.78-10.62,34.55-3.85,70.59-8.23,99.63-27.26s48.6-57.67,34.56-89.5l94.12,25.78c2.61,1.43,4.86,2.61,6.76,3.5,30.17,14.34,47.42,23.71,47.42,23.71s0,11.86-19.74,13.87"/><path class="an" d="M419.59,597.51a74.05,74.05,0,0,1-19.5,12.27c-20.1,8.71-42.8,9.42-64.67,7.7s-43.56-5.63-65.49-5.69c-13.12,0-26.3,1.31-39.45,2.65-22.68,2.32-45.29,4.64-67.42-.16-2.72-.59-5.81-1.42-9.13-2.49-7.23-14.76-11.08-33.07-7-56.9a31.1,31.1,0,0,1,1.84-6.4c4.44-2.85,8.53-5.28,11.56-7.23a175.11,175.11,0,0,1,119.78-26.14c5.4.83,10.79,1.9,16.06,3.14A179.58,179.58,0,0,1,327.48,545c24.71,26.2,41,40.48,68.63,44.93A80.7,80.7,0,0,1,410,593.83c3,1.07,6.17,2.31,9.55,3.68"/><path class="ak" d="M337.26,667.67h0a398.17,398.17,0,0,0,26.16,61.07c1.26-1.87,2.5-3.76,3.7-5.68-13.82-18.62-23.5-38.81-29.86-55.4"/><path class="ao" d="M96.82,581.54,76.07,599.82s4.45,7.41,41.49,8.4,79,1.48,89.89,3.95c0,0,12.35-9.39,3.46-21.24s-114.09-9.39-114.09-9.39"/><path class="ap" d="M147,554.87s27.66,6.91,34.57,16,22,8.89,29.39,20c0,0-74.83-9.64-134.84,8.89,0,0-7.41-2.23,4-15.07s43-30.62,66.93-29.88"/><path class="aq" d="M505.35,772.53c-4.5,24.25-35.56,11.38-62-12.56A31.15,31.15,0,0,1,441,757.6c-11-11.09-21.69-30.64-30.82-51-9.84-21.82-17.9-44.58-22.64-58.92-3-9.07-4.74-14.82-4.74-14.82l69.7,5.22s2.55,4.09,6.58,11c8.06,13.76,21.93,38.59,32.48,63.66,6.46,15.29,11.74,30.64,13.63,43.56,1,6.64,1,12,.18,16.24"/><path class="aj" d="M444.48,743.37c.06,5.87-1.19,10.61-3.5,14.23-9.42,14.82-36.81,9.24-65.79-24.42-18.25-21.22-30.46-46-38-65.67-7.41-19.21-10.37-33.43-10.32-34.68l60.64,14.88,27.8,6.82s9.9,20.15,18.13,42.91c5.87,16.12,10.91,33.48,11,45.93"/><path class="al" d="M332.15,653.21c1.38,4.3,3.05,9.11,5.05,14.3a282.25,282.25,0,0,0,34,25.24c3.19,2,6.24,3.77,9.15,5.29,1.08-2.46,2.12-5,3.1-7.5a97.13,97.13,0,0,1-13.2-7.15c-.89-.53-1.72-1.07-2.6-1.66a265,265,0,0,1-35.52-28.52"/><path class="aq" d="M668.05,722.15C626.8,723.46,604.57,694,604.57,694c0,.24-.12,3.44-5.87,7-4.5,2.78-12.38,5.74-26.31,7.82a45.45,45.45,0,0,1-11,.23c-27.56-2.84-49.08-29.75-49.08-29.75s1.72,11.8-13.45,18.14c-4.68,1.95-10.9,3.38-19.32,3.79-13.69.65-24.12-2.19-31.83-5.87-12.45-6-17.78-14.46-17.78-14.46s-15.12,30.94-59.69,2.49c-.89-.53-1.72-1.07-2.6-1.66-46.53-31.24-67.22-66.14-67.22-66.14,49.43-51.87,143.67-19.21,219.31,9.84,70.7,27.14,138.93,88.19,147.4,95.89.59.54.89.83.89.83"/><path class="ar" d="M244.26,792.39q2.79,7.92,6.17,15.61c1.88-.48,3.74-1,5.6-1.5a176.62,176.62,0,0,1-11.77-14.11"/><path class="ai" d="M370.48,839.25c3.83,18.56,31.89,36.11,52.1,45.76s28.61,24.72,30.9,36.39a97.19,97.19,0,0,0,5.55,19s4.07,4,15.47.73,10.87-19.53,12.93-37.57-16.95-19.83-33.75-42.77S435.54,816.29,426,807c-20.31-19.9-63.57-6.55-55.56,32.26"/><path class="as" d="M214.24,525.76h-.38c-12.32.18-22.18,8.86-22,19.4s10,18.77,22.19,18.77h.38c12.32-.17,22.18-8.86,22-19.4s-10.05-18.77-22.19-18.77"/><path class="k" d="M231.43,544.6c.12,8.17-7.53,14.92-17.09,15s-17.4-6.38-17.51-14.56,7.53-14.92,17.09-15.05,17.4,6.38,17.51,14.56"/><path class="l" d="M227,538.64c.05,3.79-3.5,6.92-7.94,7s-8.08-3-8.13-6.76,3.5-6.93,7.94-7,8.08,3,8.13,6.77"/><path class="at" d="M389.54,618.31c.42.59,3.13,4.32,6.88,9.64,0-1,.07-2,.09-3-3.79-3.71-6.47-6.2-7-6.67m-19.27,65.08a97.13,97.13,0,0,0,13.2,7.15c.36-.92.71-1.84,1.06-2.76a124.77,124.77,0,0,1-14.26-4.39"/></g><g class="au"><path class="av" d="M1238.48,999.33s-32.54,23.85-56.63-4.16c0,0-4.45,30.73-26.88,24.36s-91.15-34.13-91.15-34.13a373,373,0,0,1-41.33,12.1c-24.89,5.82-58.58,11.64-94.16,11.49-43-.2-102.94-14.21-155.06-50.24a254.1,254.1,0,0,1-33.61-27.54,243.91,243.91,0,0,1-52.91-76c-41.59-93.36-51.55-118.5-73.06-134.9-.78-.6-1.62-1.18-2.47-1.77a136.37,136.37,0,0,0-14.77-8.9A112.36,112.36,0,0,1,579,698a139.79,139.79,0,0,1-20.53-20.26c-17.23-20.87-29-46.9-30.11-72-.38-8.32-5.68-40.28,43.88-77.84s117.91-18.77,155.22,1.85,59.08,45.09,59.08,45.09,58.77.47,144.5,65.85C948.61,654.14,968,673,988.06,695,1033.71,744.79,1083,810.38,1123.43,864c18.59,24.64,35.36,46.73,49,63.63,7.28,9,13.68,16.49,19.07,22.15l47,49.51"/><path class="aw" d="M710.41,615.18a398.94,398.94,0,0,1-103,77,62.07,62.07,0,0,0,27.09-41.91c-11.35,12.74-23,25.53-36.39,36.17-5.56,4.43-12.59,7.86-19.15,11.61a112.29,112.29,0,0,0,17.49,11.63,134.76,134.76,0,0,1,14.77,8.91c20.19-11.07,39.66-23.48,56.62-38.92a175.1,175.1,0,0,0,17-17.92,86.47,86.47,0,0,1,17.42-26.37,120.09,120.09,0,0,0,8.1-20.16"/><path class="aw" d="M714.21,774.19q1.78,2.88,3.65,5.72l1.86-1.29a45.89,45.89,0,0,1-5.51-4.43"/><path class="ax" d="M513.39,639.14l-13.9,24.27s31,5,62.46-6.3c0,0-.3-5-5.57-15.19s-2.07-11.36-2.07-11.36Z"/><path class="ay" d="M532.11,603.86s5.8,7.33,12.35,15.64,9.85,11,9.85,11-38.5,12.63-54.42,35.65c0,0-7.75-33.24,32.22-62.34"/><path class="az" d="M719.39,750.64S832,865.36,1022.06,941.9s255.24,84.93,209.17,49.58c-12-9.24-331-172.11-337.64-177.61s-174.2-63.23-174.2-63.23"/><path class="d" d="M993.53,832.08a65.74,65.74,0,0,1-17.18.32,20.92,20.92,0,0,1-5.11,6.9c-7.1,6.33-18.21,7.55-28.59,6.9A114,114,0,0,1,916.41,841a29.24,29.24,0,0,1-9.75,6.14c-9.91,3.76-20.95,1.68-30.79-2.23-16.07-6.45-29.11-18-29.11-18s-8.43,15.22-32.91,9c-8.73-2.23-19.56-7.17-32.73-16.5-50.1-35.59-74.51-83.66-72.79-83.44l212.42-18.12s78.14,57.31,88.94,88.88c6,17.68-5.15,23.61-16.16,25.42"/><path class="ba" d="M688.58,730.12C691.71,741,701.2,762,714.21,774.18a213,213,0,0,1-12.13-22.57,109.53,109.53,0,0,1-13.5-21.49"/><path class="bb" d="M702.08,751.61a214.18,214.18,0,0,0,12.13,22.58,46.69,46.69,0,0,0,5.51,4.43q5.4-3.81,10.52-8c-1-1.3-2-2.58-3-3.83-9.42-.1-18-6.56-25.19-15.22"/><path class="o" d="M737.73,764.26a22.48,22.48,0,0,1-10.24,2.57h-.22c1,1.25,1.94,2.53,3,3.83q3.82-3.1,7.49-6.4"/><path class="az" d="M1030.42,776.58c-24.44,3.92-43.19-16.13-43.19-16.13s8,28.19-28.41,24.77-61.26-32.41-61.26-32.41S895.89,762,875,764.16s-44.29-12.57-44.29-12.57S835.06,772,803,776.78,748.28,756,748.28,756c-32.7,35.09-61.54-24.45-66.67-43.7a80.5,80.5,0,0,1-2.65-23c1.29-46.59,44.51-85.4,106.74-89.92,76.46-5.58,146.95,49.1,187.08,86.72,7.34,6.78,13.58,13,18.76,18.24,33.6,34.11,63.33,68.4,38.88,72.26"/><path class="aw" d="M613.88,557.32c-16.54,0-33.14,2.83-45.65,10.38-19.94,12-13.12,41.86,2.57,55a40.53,40.53,0,0,0,25.91,9.15,39.32,39.32,0,0,0,18.77-4.64c14.66-7.94,23.08-24.21,37.1-33.22,3.7-2.38,7.76-4.23,11.15-7s6.11-6.91,5.8-11.29c-.51-7.59-9.07-11.64-16.45-13.5a164.78,164.78,0,0,0-39.2-4.87m-29.62,58.15c-11.23,0-20.92-6.69-22.88-16.59-2.27-11.51,6.8-23,20.25-25.65a28.44,28.44,0,0,1,5.6-.56c11.23,0,20.92,6.7,22.88,16.59,2.27,11.52-6.8,23-20.25,25.66a29.19,29.19,0,0,1-5.6.55"/><path class="bc" d="M587.23,572.67a28.44,28.44,0,0,0-5.6.56c-13.46,2.65-22.52,14.14-20.25,25.65,2,9.9,11.65,16.59,22.88,16.59a29.19,29.19,0,0,0,5.6-.55c13.45-2.66,22.52-14.14,20.25-25.66-2-9.89-11.65-16.59-22.88-16.59"/><path class="k" d="M604.65,590.34c1.76,8.93-5.27,17.85-15.71,19.91s-20.33-3.51-22.1-12.44,5.27-17.85,15.71-19.91,20.33,3.51,22.1,12.44"/><path class="l" d="M598.63,584.69c.82,4.15-2.45,8.29-7.29,9.25s-9.44-1.64-10.26-5.78,2.44-8.29,7.29-9.25,9.44,1.63,10.26,5.78"/><path class="bd" d="M773.92,678.11A38.41,38.41,0,0,1,743,695h-.22a38.38,38.38,0,0,1-31-16.25,32.63,32.63,0,0,1-25,11.58,30.75,30.75,0,0,1-7.27-.86l-.57-.16c0,.82,0,1.64,0,2.46a81.42,81.42,0,0,0,2.7,20.53c4,15,22.43,54.56,45.87,54.56a22.48,22.48,0,0,0,10.24-2.57A193.64,193.64,0,0,0,790,687.1a57.3,57.3,0,0,1-16.12-9"/></g><circle class="be" cx="120.04" cy="322.8" r="43.93"/><path class="l" d="M106.44,310.15v-4.81c4.53-.44,7.68-1.17,9.47-2.21s3.12-3.47,4-7.32h4.94v49.63h-6.68V310.15Z"/><circle class="bf" cx="517.48" cy="322.8" r="43.93"/><path class="l" d="M502,334.23q2.31-4.77,9-8.67l6.68-3.86a31,31,0,0,0,6.3-4.46,9.16,9.16,0,0,0,2.86-6.62,9.27,9.27,0,0,0-2.61-6.93,9.54,9.54,0,0,0-7-2.56q-6.45,0-8.91,4.89a17.48,17.48,0,0,0-1.46,7.26h-6.37a22.42,22.42,0,0,1,2.4-10.62q4.06-7.23,14.37-7.24,8.57,0,12.51,4.63a15.51,15.51,0,0,1,4,10.3,14,14,0,0,1-4.21,10.24,41.21,41.21,0,0,1-8.73,6L516,329.22a30.35,30.35,0,0,0-5.36,3.58,13.12,13.12,0,0,0-4.39,6.72H533.5v5.91H499.29A29.07,29.07,0,0,1,502,334.23Z"/><circle class="bf" cx="120.04" cy="721.51" r="43.93"/><path class="l" d="M105.31,740.64a18,18,0,0,1-4-11.81h6.54c.28,3.22.88,5.57,1.81,7q2.43,3.93,8.81,3.93a11.56,11.56,0,0,0,7.93-2.64,8.68,8.68,0,0,0,3-6.82q0-5.16-3.15-7.21c-2.1-1.37-5-2-8.75-2-.42,0-.84,0-1.27,0l-1.3,0V715.6c.65.07,1.19.12,1.63.14s.92,0,1.43,0a13.14,13.14,0,0,0,5.78-1.11q4-1.95,4-7A6.81,6.81,0,0,0,125.1,702a9.93,9.93,0,0,0-6.16-2q-6.27,0-8.67,4.18a14.41,14.41,0,0,0-1.49,6.54h-6.2a18.73,18.73,0,0,1,2.23-9.46q3.82-7,13.47-7,7.62,0,11.79,3.39t4.18,9.83a11,11,0,0,1-2.47,7.45,10.33,10.33,0,0,1-4,2.78,10.88,10.88,0,0,1,6.15,4.16,12.62,12.62,0,0,1,2.21,7.54,15.36,15.36,0,0,1-4.7,11.62q-4.71,4.49-13.33,4.49Q109.29,745.5,105.31,740.64Z"/><circle class="be" cx="530.51" cy="736.14" r="43.93"/><path class="l" d="M533.76,758.78V746.6H511.9v-6.13l22.83-31.67H540v32.33h7.35v5.47H540v12.18Zm-.1-17.65V718.5l-16,22.63Z"/></svg>