<svg xmlns="http://www.w3.org/2000/svg" viewBox="0 0 283.48 105.6"><defs><style>.cls-1{fill:#934b98;}.cls-2{fill:#fff;fill-rule:evenodd;}.cls-3{fill:#f26768;}.cls-4{fill:#59c1a5;}</style></defs><g id="Capa_1" data-name="Capa 1"><circle class="cls-1" cx="108.76" cy="58.16" r="25.33"/><path class="cls-2" d="M123,69.1H94.52a6,6,0,0,1,2.53-5.41,37.34,37.34,0,0,1,4.13-2.12c.82-.4,1.67-.74,2.48-1.18a1.91,1.91,0,0,0,1-1.86A3.41,3.41,0,0,0,104,56a3,3,0,0,1-.47-.95,7.2,7.2,0,0,0-1.1-2.06,3.14,3.14,0,0,1-.39-3.33,2.72,2.72,0,0,0,0-1.14,31.55,31.55,0,0,1-.22-4,5.74,5.74,0,0,1,5.53-5.56,6.68,6.68,0,0,1,3.55.27,21.36,21.36,0,0,1,3.19,1.73,4.69,4.69,0,0,1,1.79,4.24,34.59,34.59,0,0,1-.45,3.63,2.21,2.21,0,0,0,.1,1,3.71,3.71,0,0,1-.79,3.61,2.39,2.39,0,0,0-.47.75c-.4.81-.73,1.67-1.19,2.45s-.29,3.09.57,3.62,2,1,3,1.47,2.3,1,3.35,1.63A6.26,6.26,0,0,1,123,69.1ZM104.09,52.45a11.24,11.24,0,0,0,1.33,3.06,3.07,3.07,0,0,1,.64,2.3c0,.26,0,.51,0,.77a3.2,3.2,0,0,1-1.9,3.13c-1,.51-2,.88-3,1.38a32.81,32.81,0,0,0-3.67,2,3.58,3.58,0,0,0-1.42,2.58h25.4a4.69,4.69,0,0,0-2.81-3.61c-1.38-.69-2.86-1.2-4.25-1.89a10.34,10.34,0,0,1-2.14-1.45c-.83-.7-.73-1.75-.74-2.7s-.37-1.8.61-2.41a.86.86,0,0,0,.26-.42c.32-.9.64-1.8,1-2.78,1.16-.36,1.41-1.63.37-2.64.07-.24.16-.49.22-.74a11.48,11.48,0,0,0,.48-5A2.9,2.9,0,0,0,112,41.46a2.51,2.51,0,0,1-.58-.31,6.56,6.56,0,0,0-1.43-.8,6.73,6.73,0,0,0-3.82.28,3.75,3.75,0,0,0-2.65,2.71,11,11,0,0,0-.27,3.13,33.17,33.17,0,0,0,.54,3.49c-.65.28-.65.81-.52,1.42S103.54,52.46,104.09,52.45Z"/><circle class="cls-3" cx="215.11" cy="58.16" r="25.33"/><circle class="cls-4" cx="33.33" cy="58.16" r="25.33"/><path class="cls-2" d="M48.07,69.67H18.6a5.89,5.89,0,0,1,2-5.19,23.28,23.28,0,0,1,3.87-2.28c1.05-.55,2.2-.9,3.25-1.47,1.37-.76,1.67-2.88.89-4.25a53.9,53.9,0,0,1-2.49-5.13,1.75,1.75,0,0,1,.06-1.4,3.29,3.29,0,0,0,.12-2.05,22.17,22.17,0,0,1-.16-4,5.93,5.93,0,0,1,5.47-5.61,7.31,7.31,0,0,1,4.19.34,25.26,25.26,0,0,1,2.89,1.57,4.26,4.26,0,0,1,1.95,3.7c0,1.55-.25,3.1-.39,4.64a2.46,2.46,0,0,0,0,.9,3.58,3.58,0,0,1-.84,4,2.12,2.12,0,0,0-.36.64A7.29,7.29,0,0,1,38.27,56a3.7,3.7,0,0,0-.58,3.23,2.32,2.32,0,0,0,1.06,1.41c1,.59,2.12.94,3.15,1.48A26.93,26.93,0,0,1,46,64.44,5.93,5.93,0,0,1,48.07,69.67ZM38.46,49.8c.28-1.42.61-2.72.77-4s.2-3-1-4a11.65,11.65,0,0,0-3.88-2,7,7,0,0,0-3.27.17,4.17,4.17,0,0,0-3.4,3.6A13.34,13.34,0,0,0,28,49.05a1.08,1.08,0,0,1-.11.82,1.5,1.5,0,0,0,.53,2.46,16.24,16.24,0,0,0,1.37,3.22,2.9,2.9,0,0,1,.63,2.16c-.08.73.28,1,.83,1.47a3,3,0,0,0,4.12,0,1.48,1.48,0,0,0,.77-1.41c0-.53-.16-1.28.13-1.56A7.41,7.41,0,0,0,38,52.31c.83.1.95-.48,1.08-1.1S39.11,50,38.46,49.8Zm8,18.36a4.47,4.47,0,0,0-2.33-3.33c-1.56-.84-3.23-1.52-4.86-2.22a.81.81,0,0,0-.68.27c-.58.63-1.09,1.31-1.65,2s-.89.55-1.39,0-.86-1-1.46-1.79c-.12.45-.29.73-.22.92.52,1.4,1.1,2.78,1.68,4.23Zm-15.33,0,1.69-4.59-.45-.38c-.45.57-.87,1.11-1.31,1.62s-.87.59-1.39,0c-.33-.36-.62-.74-.93-1.11-1-1.23-1.06-1.29-2.5-.63a39.58,39.58,0,0,0-4.44,2.29,3.72,3.72,0,0,0-1.63,2.79Zm-.86-7.88-1.24,1.46,1.32,1.59,1.68-2.07Zm6,0-1.7,1,1.69,2.07,1.3-1.59Z"/><path class="cls-4" d="M34.32,33.53h-2V18.38A9.39,9.39,0,0,1,41.7,9H206.63A9.39,9.39,0,0,1,216,18.38V24h-2V18.38A7.39,7.39,0,0,0,206.63,11H41.7a7.39,7.39,0,0,0-7.38,7.38Z"/><polygon class="cls-4" points="215.01 31.06 219.07 21.11 215.01 23.48 210.94 21.11 215.01 31.06"/><path class="cls-4" d="M61.74,54.06l.43,0H73.79V52H62.17l-.43,0v2Z"/><polygon class="cls-4" points="80.85 53.04 70.91 48.98 73.27 53.04 70.91 57.11 80.85 53.04"/><path class="cls-1" d="M80.85,65c-.14,0-.28,0-.42,0H68.8v2H80.43c.14,0,.28,0,.42,0Z"/><polygon class="cls-1" points="61.74 66.02 71.69 70.08 69.33 66.02 71.69 61.95 61.74 66.02"/><path class="cls-2" d="M228.58,48.38V69.1h-27V48.38l5.56-1.29c2.45-.57,4.9-1.14,7.36-1.69a1.94,1.94,0,0,1,.86-.06ZM217.16,67.05h9.33a2.72,2.72,0,0,0,0-.39q0-8.05,0-16.12c0-.39-.13-.53-.51-.62q-5.33-1.19-10.65-2.41a1.57,1.57,0,0,0-.61,0c-3.49.79-7,1.59-10.46,2.36-.5.11-.67.3-.66.83,0,5.22,0,10.45,0,15.68,0,.22,0,.44,0,.66h9.38V62h4.09Z"/><path class="cls-2" d="M210.91,54.58h-4.08V51.51h4.08Z"/><path class="cls-2" d="M223.37,54.58h-4.08V51.52h4.08Z"/><path class="cls-2" d="M210.9,59.78h-4.06V56.73h4.06Z"/><path class="cls-2" d="M219.28,59.78V56.73h4.09v3.05Z"/><path class="cls-2" d="M217.13,51.52v3h-4v-3Z"/><path class="cls-2" d="M217.1,59.8h-4V56.73h4Z"/><path class="cls-2" d="M206.82,65v-3h4.09v3Z"/><path class="cls-2" d="M223.35,65h-4.07V62h4.07Z"/></g><g id="Isolation_Mode" data-name="Isolation Mode"><path class="cls-1" d="M81.32,89.48h1.1L85,96.66H84l-.72-2.15H80.39l-.78,2.15h-1Zm1.59,4.24-1.08-3.17-1.16,3.17Z"/><path class="cls-1" d="M86.31,95a1.24,1.24,0,0,0,.22.67,1.45,1.45,0,0,0,1.18.43,1.82,1.82,0,0,0,.88-.22.69.69,0,0,0,.37-.65.57.57,0,0,0-.3-.52,4.08,4.08,0,0,0-.76-.25l-.71-.17a3.52,3.52,0,0,1-1-.37,1.11,1.11,0,0,1-.58-1,1.51,1.51,0,0,1,.54-1.2,2.17,2.17,0,0,1,1.46-.46,2.05,2.05,0,0,1,1.73.69,1.55,1.55,0,0,1,.32,1h-.83a1,1,0,0,0-.22-.54,1.37,1.37,0,0,0-1.07-.34,1.27,1.27,0,0,0-.77.19.57.57,0,0,0-.27.5.6.6,0,0,0,.35.54,1.78,1.78,0,0,0,.59.22l.59.14a4.7,4.7,0,0,1,1.29.44,1.19,1.19,0,0,1,.51,1.06,1.63,1.63,0,0,1-.53,1.21,2.3,2.3,0,0,1-1.64.51A2.23,2.23,0,0,1,86,96.33,2,2,0,0,1,85.46,95Z"/><path class="cls-1" d="M94,91.57a2,2,0,0,1,.79.68,2.42,2.42,0,0,1,.35.92,6.41,6.41,0,0,1,.07,1.15h-3.8a2.28,2.28,0,0,0,.37,1.28,1.25,1.25,0,0,0,1.08.49A1.4,1.4,0,0,0,94,95.63,1.58,1.58,0,0,0,94.3,95h.86a1.78,1.78,0,0,1-.23.64,2,2,0,0,1-.43.58,2.08,2.08,0,0,1-1,.53,3.11,3.11,0,0,1-.71.07,2.17,2.17,0,0,1-1.65-.71,2.75,2.75,0,0,1-.67-2,3,3,0,0,1,.68-2,2.21,2.21,0,0,1,1.77-.79A2.45,2.45,0,0,1,94,91.57Zm.31,2.06a2.19,2.19,0,0,0-.25-.92,1.26,1.26,0,0,0-1.19-.63,1.3,1.3,0,0,0-1,.44,1.68,1.68,0,0,0-.43,1.11Z"/><path class="cls-1" d="M96.87,95a1.33,1.33,0,0,0,.22.67,1.45,1.45,0,0,0,1.18.43,1.82,1.82,0,0,0,.88-.22.7.7,0,0,0,.38-.65.58.58,0,0,0-.31-.52,4.08,4.08,0,0,0-.76-.25l-.71-.17a3.65,3.65,0,0,1-1-.37,1.11,1.11,0,0,1-.58-1,1.51,1.51,0,0,1,.54-1.2,2.17,2.17,0,0,1,1.46-.46A2.05,2.05,0,0,1,99.9,92a1.49,1.49,0,0,1,.32,1h-.83a1,1,0,0,0-.22-.54,1.37,1.37,0,0,0-1.07-.34,1.27,1.27,0,0,0-.77.19.56.56,0,0,0-.26.5.59.59,0,0,0,.34.54,1.78,1.78,0,0,0,.59.22l.59.14a4.7,4.7,0,0,1,1.29.44,1.19,1.19,0,0,1,.52,1.06,1.6,1.6,0,0,1-.54,1.21,2.3,2.3,0,0,1-1.64.51,2.23,2.23,0,0,1-1.67-.53A2,2,0,0,1,96,95Z"/><path class="cls-1" d="M105.14,92a2.65,2.65,0,0,1,.69,2,3.41,3.41,0,0,1-.61,2.09,2.21,2.21,0,0,1-1.9.82,2.12,2.12,0,0,1-1.7-.73,2.87,2.87,0,0,1-.63-2,3.14,3.14,0,0,1,.66-2.09,2.24,2.24,0,0,1,1.79-.78A2.35,2.35,0,0,1,105.14,92Zm-.55,3.48a3.44,3.44,0,0,0,.32-1.47,2.68,2.68,0,0,0-.23-1.19,1.29,1.29,0,0,0-1.26-.73,1.24,1.24,0,0,0-1.16.62,2.78,2.78,0,0,0-.37,1.48,2.42,2.42,0,0,0,.37,1.39,1.27,1.27,0,0,0,1.15.56A1.19,1.19,0,0,0,104.59,95.43Z"/><path class="cls-1" d="M106.93,91.43h.84v.9a2,2,0,0,1,.5-.64,1.33,1.33,0,0,1,.92-.38h.09l.2,0v.92l-.15,0h-.14a1.25,1.25,0,0,0-1,.43,1.47,1.47,0,0,0-.36,1v3h-.88Z"/><path class="cls-1" d="M113.45,91.43l1.4,4.26,1.45-4.26h1l-2,5.23h-.93l-1.93-5.23Z"/><path class="cls-1" d="M118,89.48h.89v1H118Zm0,2h.89v5.21H118Z"/><path class="cls-1" d="M120.26,91.43h.84v.9a2,2,0,0,1,.5-.64,1.33,1.33,0,0,1,.92-.38h.09l.2,0v.92l-.15,0h-.14a1.25,1.25,0,0,0-1,.43,1.47,1.47,0,0,0-.36,1v3h-.88Z"/><path class="cls-1" d="M123.74,90h.89v1.46h.84v.72h-.84v3.41a.39.39,0,0,0,.19.37.9.9,0,0,0,.34,0h.14l.17,0v.7a1.65,1.65,0,0,1-.32.06l-.35,0a1,1,0,0,1-.84-.31,1.47,1.47,0,0,1-.22-.82V92.15H123v-.72h.7Z"/><path class="cls-1" d="M127.23,91.43V94.9a1.48,1.48,0,0,0,.12.65.85.85,0,0,0,.85.47,1.2,1.2,0,0,0,1.22-.82,3.25,3.25,0,0,0,.17-1.2V91.43h.88v5.23h-.83v-.77a2,2,0,0,1-.41.5,1.84,1.84,0,0,1-1.2.41,1.55,1.55,0,0,1-1.5-.75,2.28,2.28,0,0,1-.21-1.07V91.43Z"/><path class="cls-1" d="M134.71,93.49a.48.48,0,0,0,.41-.25.77.77,0,0,0,.06-.34.71.71,0,0,0-.32-.65,1.69,1.69,0,0,0-.92-.21,1,1,0,0,0-1.18,1h-.82a1.5,1.5,0,0,1,.62-1.35,2.62,2.62,0,0,1,1.4-.38,2.87,2.87,0,0,1,1.5.35,1.2,1.2,0,0,1,.57,1.1v3a.38.38,0,0,0,.06.22s.11.08.23.08h.13l.16,0v.65l-.31.08H136a.72.72,0,0,1-.66-.32,1.18,1.18,0,0,1-.16-.49,2,2,0,0,1-.77.61,2.26,2.26,0,0,1-1.1.26,1.61,1.61,0,0,1-1.19-.44,1.57,1.57,0,0,1,0-2.23,2.12,2.12,0,0,1,1.19-.49Zm-1.85,2.38a1.09,1.09,0,0,0,.66.22,1.93,1.93,0,0,0,.9-.22,1.2,1.2,0,0,0,.73-1.16V94a1.3,1.3,0,0,1-.41.17,3.16,3.16,0,0,1-.5.1l-.53.07a2,2,0,0,0-.72.2.77.77,0,0,0-.41.73A.75.75,0,0,0,132.86,95.87Z"/><path class="cls-1" d="M137.49,89.48h.88v7.18h-.88Z"/><path class="cls-4" d="M27.82,89.48v.86H25.41v6.32h-1V90.34H22v-.86Z"/><path class="cls-4" d="M29.11,91.43V94.9a1.48,1.48,0,0,0,.12.65.86.86,0,0,0,.86.47,1.19,1.19,0,0,0,1.21-.82,3.22,3.22,0,0,0,.18-1.2V91.43h.88v5.23h-.83v-.77a1.8,1.8,0,0,1-1.62.91,1.52,1.52,0,0,1-1.49-.75A2.16,2.16,0,0,1,28.21,95V91.43Z"/><path class="cls-4" d="M34,90h.89v1.46h.83v.72h-.83v3.41a.39.39,0,0,0,.18.37,1,1,0,0,0,.35,0h.13l.17,0v.7a1.55,1.55,0,0,1-.31.06l-.36,0a1,1,0,0,1-.83-.31,1.39,1.39,0,0,1-.22-.82V92.15h-.71v-.72H34Z"/><path class="cls-4" d="M40.36,92a2.65,2.65,0,0,1,.69,2A3.41,3.41,0,0,1,40.44,96a2.19,2.19,0,0,1-1.89.82,2.11,2.11,0,0,1-1.7-.73,2.87,2.87,0,0,1-.63-2,3.14,3.14,0,0,1,.66-2.09,2.22,2.22,0,0,1,1.78-.78A2.34,2.34,0,0,1,40.36,92Zm-.54,3.48A3.44,3.44,0,0,0,40.14,94a2.54,2.54,0,0,0-.24-1.19A1.28,1.28,0,0,0,38.64,92a1.25,1.25,0,0,0-1.16.62,2.87,2.87,0,0,0-.36,1.48,2.5,2.5,0,0,0,.36,1.39,1.28,1.28,0,0,0,1.15.56A1.21,1.21,0,0,0,39.82,95.43Z"/><path class="cls-4" d="M42.16,91.43H43v.9a2.05,2.05,0,0,1,.51-.64,1.29,1.29,0,0,1,.92-.38h.08l.2,0v.92l-.14,0h-.15a1.25,1.25,0,0,0-1,.43,1.51,1.51,0,0,0-.35,1v3h-.88Z"/><path class="cls-3" d="M165.91,90a2.54,2.54,0,0,1,.82,1.63h-.94a2,2,0,0,0-.63-1.1,2,2,0,0,0-1.33-.41,2.11,2.11,0,0,0-1.68.75,3.43,3.43,0,0,0-.64,2.28,3.34,3.34,0,0,0,.58,2,2,2,0,0,0,1.72.78,1.81,1.81,0,0,0,1.61-.82,3.35,3.35,0,0,0,.44-1.14h.94a3.27,3.27,0,0,1-.83,1.9,3.24,3.24,0,0,1-4.35.16A4,4,0,0,1,160.51,93a4,4,0,0,1,.83-2.61,3,3,0,0,1,2.48-1.1A2.88,2.88,0,0,1,165.91,90Z"/><path class="cls-3" d="M171.73,92a2.65,2.65,0,0,1,.69,2,3.41,3.41,0,0,1-.61,2.09,2.2,2.2,0,0,1-1.89.82,2.13,2.13,0,0,1-1.71-.73,2.87,2.87,0,0,1-.63-2,3.14,3.14,0,0,1,.67-2.09,2.22,2.22,0,0,1,1.78-.78A2.34,2.34,0,0,1,171.73,92Zm-.55,3.48A3.29,3.29,0,0,0,171.5,94a2.55,2.55,0,0,0-.23-1.19A1.28,1.28,0,0,0,170,92a1.25,1.25,0,0,0-1.16.62,2.87,2.87,0,0,0-.36,1.48,2.5,2.5,0,0,0,.36,1.39,1.27,1.27,0,0,0,1.15.56A1.19,1.19,0,0,0,171.18,95.43Z"/><path class="cls-3" d="M177.29,92a2.65,2.65,0,0,1,.69,2,3.41,3.41,0,0,1-.61,2.09,2.19,2.19,0,0,1-1.89.82,2.11,2.11,0,0,1-1.7-.73,2.87,2.87,0,0,1-.63-2,3.14,3.14,0,0,1,.66-2.09,2.22,2.22,0,0,1,1.78-.78A2.34,2.34,0,0,1,177.29,92Zm-.54,3.48a3.44,3.44,0,0,0,.32-1.47,2.54,2.54,0,0,0-.24-1.19,1.28,1.28,0,0,0-1.26-.73,1.25,1.25,0,0,0-1.16.62,2.87,2.87,0,0,0-.36,1.48,2.5,2.5,0,0,0,.36,1.39,1.28,1.28,0,0,0,1.15.56A1.21,1.21,0,0,0,176.75,95.43Z"/><path class="cls-3" d="M179.09,91.43h.83v.9a2.05,2.05,0,0,1,.51-.64,1.29,1.29,0,0,1,.92-.38h.08l.2,0v.92l-.14,0h-.15a1.25,1.25,0,0,0-1,.43,1.51,1.51,0,0,0-.35,1v3h-.88Z"/><path class="cls-3" d="M185.27,91.59a2.69,2.69,0,0,1,.53.51V89.46h.84v7.2h-.79v-.73a2,2,0,0,1-.72.7,2.12,2.12,0,0,1-1,.21,1.93,1.93,0,0,1-1.51-.73,2.86,2.86,0,0,1-.64-2,3.45,3.45,0,0,1,.58-2,1.9,1.9,0,0,1,1.66-.83A1.87,1.87,0,0,1,185.27,91.59Zm-2,3.92a1.25,1.25,0,0,0,1.14.57,1.2,1.2,0,0,0,1-.53,2.48,2.48,0,0,0,.39-1.5,2.23,2.23,0,0,0-.4-1.47,1.25,1.25,0,0,0-1-.48,1.3,1.3,0,0,0-1.07.51A2.36,2.36,0,0,0,183,94.1,2.68,2.68,0,0,0,183.3,95.51Z"/><path class="cls-3" d="M188,89.48h.89v1H188Zm0,2h.89v5.21H188Z"/><path class="cls-3" d="M190.18,91.43H191v.74a2.38,2.38,0,0,1,.79-.66,2.11,2.11,0,0,1,.92-.2,1.52,1.52,0,0,1,1.5.78,2.64,2.64,0,0,1,.22,1.21v3.36h-.89v-3.3a1.7,1.7,0,0,0-.15-.77.86.86,0,0,0-.85-.49,1.53,1.53,0,0,0-.51.07,1.26,1.26,0,0,0-.63.43,1.33,1.33,0,0,0-.29.53,4,4,0,0,0-.06.79v2.74h-.88Z"/><path class="cls-3" d="M198.54,93.49a.48.48,0,0,0,.41-.25.79.79,0,0,0,.05-.34.7.7,0,0,0-.31-.65,1.69,1.69,0,0,0-.92-.21,1,1,0,0,0-1.18,1h-.82a1.5,1.5,0,0,1,.62-1.35,2.62,2.62,0,0,1,1.4-.38,2.87,2.87,0,0,1,1.5.35,1.2,1.2,0,0,1,.57,1.1v3a.38.38,0,0,0,.06.22s.11.08.23.08h.13l.16,0v.65l-.31.08h-.29a.72.72,0,0,1-.66-.32A1.18,1.18,0,0,1,199,96a2,2,0,0,1-.77.61,2.27,2.27,0,0,1-1.11.26,1.6,1.6,0,0,1-1.18-.44,1.57,1.57,0,0,1,0-2.23,2.12,2.12,0,0,1,1.19-.49Zm-1.85,2.38a1.09,1.09,0,0,0,.66.22,1.93,1.93,0,0,0,.9-.22,1.2,1.2,0,0,0,.73-1.16V94a1.3,1.3,0,0,1-.41.17,3.16,3.16,0,0,1-.5.1l-.53.07a2,2,0,0,0-.72.2.77.77,0,0,0-.41.73A.72.72,0,0,0,196.69,95.87Z"/><path class="cls-3" d="M204.75,91.71a2,2,0,0,1,.67,1.48h-.85a1.63,1.63,0,0,0-.36-.81,1.14,1.14,0,0,0-.89-.32,1.24,1.24,0,0,0-1.2.82,3.19,3.19,0,0,0-.24,1.31,2.5,2.5,0,0,0,.33,1.33,1.15,1.15,0,0,0,1,.53,1.14,1.14,0,0,0,.86-.33,1.86,1.86,0,0,0,.45-.91h.85a2.06,2.06,0,0,1-2.23,2,2,2,0,0,1-1.64-.75,2.9,2.9,0,0,1-.61-1.87,3.2,3.2,0,0,1,.67-2.15,2.18,2.18,0,0,1,1.71-.76A2.23,2.23,0,0,1,204.75,91.71Z"/><path class="cls-3" d="M206.3,89.48h.89v1h-.89Zm0,2h.89v5.21h-.89Z"/><path class="cls-3" d="M212.31,92a2.65,2.65,0,0,1,.69,2,3.41,3.41,0,0,1-.61,2.09,2.19,2.19,0,0,1-1.89.82,2.11,2.11,0,0,1-1.7-.73,2.87,2.87,0,0,1-.63-2,3.14,3.14,0,0,1,.66-2.09,2.22,2.22,0,0,1,1.78-.78A2.34,2.34,0,0,1,212.31,92Zm-.55,3.48a3.3,3.3,0,0,0,.33-1.47,2.54,2.54,0,0,0-.24-1.19,1.28,1.28,0,0,0-1.26-.73,1.25,1.25,0,0,0-1.16.62,2.87,2.87,0,0,0-.36,1.48,2.5,2.5,0,0,0,.36,1.39,1.27,1.27,0,0,0,1.15.56A1.18,1.18,0,0,0,211.76,95.43Zm-.11-6.11-1.3,1.41h-.68l.9-1.41Z"/><path class="cls-3" d="M214.08,91.43h.84v.74a2.45,2.45,0,0,1,.78-.66,2.18,2.18,0,0,1,.93-.2,1.52,1.52,0,0,1,1.5.78,2.78,2.78,0,0,1,.22,1.21v3.36h-.9v-3.3a1.86,1.86,0,0,0-.14-.77.87.87,0,0,0-.85-.49,1.46,1.46,0,0,0-.51.07,1.33,1.33,0,0,0-.64.43,1.3,1.3,0,0,0-.28.53,3.22,3.22,0,0,0-.07.79v2.74h-.88Z"/><path class="cls-3" d="M225.23,93.49a.46.46,0,0,0,.4-.25.77.77,0,0,0,.06-.34.71.71,0,0,0-.32-.65,1.66,1.66,0,0,0-.91-.21,1.16,1.16,0,0,0-1,.38,1.35,1.35,0,0,0-.21.61h-.82a1.52,1.52,0,0,1,.63-1.35,2.6,2.6,0,0,1,1.4-.38,2.86,2.86,0,0,1,1.49.35,1.2,1.2,0,0,1,.57,1.1v3a.38.38,0,0,0,.06.22.3.3,0,0,0,.24.08H227l.16,0v.65l-.32.08h-.29a.74.74,0,0,1-.66-.32,1.35,1.35,0,0,1-.15-.49,2.19,2.19,0,0,1-.77.61,2.33,2.33,0,0,1-1.11.26,1.62,1.62,0,0,1-1.19-.44,1.59,1.59,0,0,1,0-2.23,2.15,2.15,0,0,1,1.19-.49Zm-1.85,2.38a1,1,0,0,0,.65.22,1.93,1.93,0,0,0,.9-.22,1.21,1.21,0,0,0,.74-1.16V94a1.36,1.36,0,0,1-.42.17,3,3,0,0,1-.5.1l-.53.07a2.09,2.09,0,0,0-.72.2.76.76,0,0,0-.4.73A.72.72,0,0,0,223.38,95.87Z"/><path class="cls-3" d="M231.44,91.71a2.07,2.07,0,0,1,.67,1.48h-.86a1.55,1.55,0,0,0-.36-.81,1.12,1.12,0,0,0-.89-.32,1.24,1.24,0,0,0-1.2.82,3.2,3.2,0,0,0-.23,1.31,2.5,2.5,0,0,0,.33,1.33,1.3,1.3,0,0,0,1.91.2,1.85,1.85,0,0,0,.44-.91h.86a2.32,2.32,0,0,1-.74,1.52,2.29,2.29,0,0,1-1.5.48,2,2,0,0,1-1.63-.75,2.84,2.84,0,0,1-.61-1.87A3.15,3.15,0,0,1,228.3,92a2.14,2.14,0,0,1,1.7-.76A2.26,2.26,0,0,1,231.44,91.71Z"/><path class="cls-3" d="M235.79,93.49a.46.46,0,0,0,.4-.25.77.77,0,0,0,.06-.34.71.71,0,0,0-.32-.65A1.66,1.66,0,0,0,235,92a1.18,1.18,0,0,0-1,.38,1.35,1.35,0,0,0-.21.61H233a1.52,1.52,0,0,1,.63-1.35,2.6,2.6,0,0,1,1.4-.38,2.86,2.86,0,0,1,1.49.35,1.19,1.19,0,0,1,.58,1.1v3a.38.38,0,0,0,0,.22.3.3,0,0,0,.24.08h.13l.16,0v.65l-.32.08h-.29a.74.74,0,0,1-.66-.32,1.35,1.35,0,0,1-.15-.49,2.19,2.19,0,0,1-.77.61,2.33,2.33,0,0,1-1.11.26,1.64,1.64,0,0,1-1.19-.44,1.59,1.59,0,0,1,0-2.23,2.15,2.15,0,0,1,1.2-.49Zm-1.85,2.38a1,1,0,0,0,.66.22,1.92,1.92,0,0,0,.89-.22,1.21,1.21,0,0,0,.74-1.16V94a1.36,1.36,0,0,1-.42.17,3,3,0,0,1-.49.1l-.54.07a2,2,0,0,0-.71.2.76.76,0,0,0-.41.73A.72.72,0,0,0,233.94,95.87Z"/><path class="cls-3" d="M241.42,91.59a2.69,2.69,0,0,1,.53.51V89.46h.84v7.2H242v-.73a1.92,1.92,0,0,1-.72.7,2.12,2.12,0,0,1-1,.21,1.94,1.94,0,0,1-1.51-.73,2.91,2.91,0,0,1-.64-2,3.38,3.38,0,0,1,.59-2,1.88,1.88,0,0,1,1.66-.83A1.83,1.83,0,0,1,241.42,91.59Zm-2,3.92a1.22,1.22,0,0,0,1.13.57,1.2,1.2,0,0,0,1-.53,2.48,2.48,0,0,0,.39-1.5,2.23,2.23,0,0,0-.4-1.47,1.25,1.25,0,0,0-1-.48,1.32,1.32,0,0,0-1.07.51,2.36,2.36,0,0,0-.41,1.49A2.59,2.59,0,0,0,239.46,95.51Z"/><path class="cls-3" d="M247.34,91.57a2,2,0,0,1,.79.68,2.42,2.42,0,0,1,.35.92,6.2,6.2,0,0,1,.08,1.15h-3.81a2.21,2.21,0,0,0,.38,1.28,1.22,1.22,0,0,0,1.08.49,1.43,1.43,0,0,0,1.09-.46,1.7,1.7,0,0,0,.32-.61h.86a2,2,0,0,1-.22.64,2.5,2.5,0,0,1-.43.58,2.16,2.16,0,0,1-1,.53,3.11,3.11,0,0,1-.71.07,2.17,2.17,0,0,1-1.65-.71,2.75,2.75,0,0,1-.67-2,3,3,0,0,1,.68-2,2.21,2.21,0,0,1,1.78-.79A2.44,2.44,0,0,1,247.34,91.57Zm.31,2.06a2.36,2.36,0,0,0-.24-.92,1.27,1.27,0,0,0-1.2-.63,1.3,1.3,0,0,0-1,.44,1.68,1.68,0,0,0-.43,1.11Zm-.35-4.31L246,90.73h-.68l.9-1.41Z"/><path class="cls-3" d="M249.67,91.43h.87v.74a3.24,3.24,0,0,1,.56-.56,1.7,1.7,0,0,1,1-.3,1.54,1.54,0,0,1,1,.31,1.72,1.72,0,0,1,.39.52,1.88,1.88,0,0,1,.69-.63,2,2,0,0,1,.88-.2,1.45,1.45,0,0,1,1.44.76,2.47,2.47,0,0,1,.21,1.11v3.48h-.92V93a.82.82,0,0,0-.26-.71,1,1,0,0,0-.64-.2,1.28,1.28,0,0,0-.89.35,1.52,1.52,0,0,0-.37,1.16v3h-.89V93.24a1.81,1.81,0,0,0-.13-.77.76.76,0,0,0-.75-.37,1.27,1.27,0,0,0-.9.39,1.83,1.83,0,0,0-.41,1.39v2.78h-.88Z"/><path class="cls-3" d="M258,89.48h.89v1H258Zm0,2h.89v5.21H258Z"/><path class="cls-3" d="M263.68,91.71a2,2,0,0,1,.66,1.48h-.85a1.55,1.55,0,0,0-.36-.81,1.12,1.12,0,0,0-.89-.32,1.24,1.24,0,0,0-1.2.82,3.19,3.19,0,0,0-.24,1.31,2.5,2.5,0,0,0,.33,1.33,1.16,1.16,0,0,0,1.05.53,1.18,1.18,0,0,0,.87-.33,1.85,1.85,0,0,0,.44-.91h.85a2.06,2.06,0,0,1-2.23,2,2,2,0,0,1-1.64-.75,2.9,2.9,0,0,1-.61-1.87,3.2,3.2,0,0,1,.67-2.15,2.18,2.18,0,0,1,1.71-.76A2.26,2.26,0,0,1,263.68,91.71Z"/><path class="cls-3" d="M268,93.49a.47.47,0,0,0,.41-.25.77.77,0,0,0,.06-.34.71.71,0,0,0-.32-.65,1.67,1.67,0,0,0-.92-.21,1,1,0,0,0-1.18,1h-.82a1.52,1.52,0,0,1,.63-1.35,2.56,2.56,0,0,1,1.39-.38,2.87,2.87,0,0,1,1.5.35,1.2,1.2,0,0,1,.57,1.1v3a.38.38,0,0,0,.06.22.27.27,0,0,0,.23.08h.14l.15,0v.65l-.31.08h-.29a.73.73,0,0,1-.66-.32,1.35,1.35,0,0,1-.15-.49,2.19,2.19,0,0,1-.77.61,2.33,2.33,0,0,1-1.11.26,1.62,1.62,0,0,1-1.19-.44,1.59,1.59,0,0,1,0-2.23,2.12,2.12,0,0,1,1.19-.49Zm-1.85,2.38a1.09,1.09,0,0,0,.66.22,1.93,1.93,0,0,0,.9-.22,1.2,1.2,0,0,0,.73-1.16V94a1.21,1.21,0,0,1-.41.17,3.16,3.16,0,0,1-.5.1l-.53.07a2,2,0,0,0-.72.2.77.77,0,0,0-.41.73A.75.75,0,0,0,266.17,95.87Z"/></g></svg>