<svg id="Layer_1" data-name="Layer 1" xmlns="http://www.w3.org/2000/svg" width="1000" height="385.95" viewBox="0 0 1000 385.95">
  <defs>
    <style>
      .cls-1 {
        fill: #fff;
      }

      .cls-2 {
        opacity: 0.3;
      }

      .cls-3 {
        opacity: 0.3;
      }
    </style>
  </defs>
  <g>
    <g>
      <path class="cls-1" d="M267.94,245.23a47,47,0,0,1-23.38-5.75,39.86,39.86,0,0,1-15.89-16.25c-3.77-7-5.63-15-5.63-24.06a49.85,49.85,0,0,1,5.63-24.06,39.93,39.93,0,0,1,15.89-16.23,46.77,46.77,0,0,1,23.38-5.76q19.9,0,34.5,15a112.87,112.87,0,0,1,17.95-36.34,79.51,79.51,0,0,0-14.93-8.59q-17.71-7.84-39.83-7.83-25.32,0-45.47,10.71a80.07,80.07,0,0,0-31.67,29.81Q177,175,177,199.17t11.51,43.3a80,80,0,0,0,31.67,29.8Q240.31,283,265.63,283q22.11,0,39.83-7.82a79.47,79.47,0,0,0,14.93-8.58,113.23,113.23,0,0,1-17.95-36.35Q287.84,245.23,267.94,245.23Z"/>
      <path class="cls-1" d="M659.61,156.58q-11.28-18.2-31.77-28.1t-47-9.9H504.63v16.7a113.12,113.12,0,0,1,0,127.78v16.7h76.24q26.45,0,47-9.9t31.77-28.08q11.26-18.19,11.28-42.61T659.61,156.58Zm-47.32,75Q599.73,243.4,579,243.38H550.23V155H579q20.73,0,33.27,11.75t12.56,32.46Q624.85,219.9,612.29,231.63Z"/>
      <path class="cls-1" d="M824.25,244.54v35.23H694.84V118.58H821.26v35.23H740V181h71.61v34.08H740v29.48Z"/>
    </g>
    <g class="cls-2">
      <path d="M109.92,190.29q-3.44,5.53-11.08,7.91,7.65,2.37,11.08,7.91t3.43,16.36v57.76q0,20.58,19.52,20.58h6.59v20.84h-11.6q-19.78,0-29.81-9.89T88,282.61V221.94q0-13.19-11.88-13.19H66.92v-21.1h9.23Q88,187.65,88,174.46V113.79q0-19.25,10-29.15t29.81-9.89h11.6V95.59h-6.59q-19.53,0-19.52,20.57v57.77Q113.35,184.74,109.92,190.29Z"/>
    </g>
    <g class="cls-2">
      <path d="M891.31,206.11q3.44-5.54,11.08-7.91-7.65-2.37-11.08-7.91t-3.43-16.36V116.16q0-20.56-19.52-20.57h-6.59V74.75h11.6q19.78,0,29.81,9.89t10,29.15v60.67q0,13.18,11.87,13.19h9.24v21.1h-9.24q-11.87,0-11.87,13.19v60.67q0,19.25-10,29.15t-29.81,9.89h-11.6V300.81h6.59q19.53,0,19.52-20.58V222.47C887.88,215.25,889,209.81,891.31,206.11Z"/>
    </g>
    <path class="cls-3" d="M411.26,126.82a72.35,72.35,0,1,1-72.35,72.35,72.36,72.36,0,0,1,72.35-72.35m0-11.46a83.82,83.82,0,1,0,83.82,83.81,83.91,83.91,0,0,0-83.82-83.81Z"/>
    <path class="cls-3" d="M411.26,99.36a99.82,99.82,0,1,1-99.81,99.81,99.82,99.82,0,0,1,99.81-99.81m0-3.52A103.34,103.34,0,1,0,514.6,199.17,103.46,103.46,0,0,0,411.26,95.84Z"/>
    <path class="cls-1" d="M468.34,199.17a57.08,57.08,0,1,1-57.08-57.07A57.08,57.08,0,0,1,468.34,199.17ZM411.26,172a27.16,27.16,0,1,0,27.16,27.15A27.16,27.16,0,0,0,411.26,172Z"/>
  </g>
</svg>
