<svg id="Layer_1" data-name="Layer 1" xmlns="http://www.w3.org/2000/svg" width="1000" height="385.95" viewBox="0 0 1000 385.95">
  <defs>
    <style>
      .cls-1 {
        fill: #fff;
      }

      .cls-2 {
        opacity: 0.3;
      }
    </style>
  </defs>
  <g>
    <g>
      <path class="cls-1" d="M195.56,267a79.9,79.9,0,0,1-31.62-29.77q-11.49-19.1-11.49-43.23t11.49-43.23a80,80,0,0,1,31.62-29.78q20.12-10.69,45.41-10.69,22.08,0,39.78,7.82a76.47,76.47,0,0,1,29.43,22.53l-29,26.22Q265.58,148,243.27,148a46.84,46.84,0,0,0-23.34,5.75,39.81,39.81,0,0,0-15.86,16.21,49.85,49.85,0,0,0-5.64,24,49.87,49.87,0,0,0,5.64,24,39.87,39.87,0,0,0,15.86,16.21,46.84,46.84,0,0,0,23.34,5.75q22.3,0,37.94-18.86l29,26.21a76.5,76.5,0,0,1-29.43,22.54Q263,277.65,241,277.65,215.68,277.65,195.56,267Z"/>
      <path class="cls-1" d="M362.26,266.84a81.28,81.28,0,0,1-32-29.89q-11.61-19.09-11.61-43t11.61-43a81.21,81.21,0,0,1,32-29.89q20.36-10.82,45.87-10.81T454,121.06A81.21,81.21,0,0,1,486,151q11.61,19.08,11.61,43T486,237a81.28,81.28,0,0,1-32,29.89q-20.36,10.8-45.88,10.81T362.26,266.84Zm67.95-32.65A41.44,41.44,0,0,0,445.85,218a53.17,53.17,0,0,0,0-48.06,41.37,41.37,0,0,0-15.64-16.21,45.25,45.25,0,0,0-44.15,0,41.28,41.28,0,0,0-15.63,16.21,49,49,0,0,0-5.75,24,49,49,0,0,0,5.75,24,41.34,41.34,0,0,0,15.63,16.21,45.25,45.25,0,0,0,44.15,0Z"/>
      <path class="cls-1" d="M521.49,113.47H597.6q26.45,0,46.91,9.89t31.73,28.05q11.26,18.17,11.27,42.54t-11.27,42.54Q665,254.65,644.51,264.54t-46.91,9.89H521.49ZM595.76,238.1q20.7,0,33.23-11.73T641.52,194q0-20.7-12.53-32.42T595.76,149.8H567v88.3Z"/>
      <path class="cls-1" d="M840.65,239.25v35.18H711.42v-161H837.66v35.18H756.49v27.13H828v34H756.49v29.44Z"/>
    </g>
    <g class="cls-2">
      <path d="M109.86,185.07q-3.44,5.53-11.06,7.91,7.64,2.37,11.06,7.9t3.42,16.33v57.68q0,20.55,19.49,20.55h6.59v20.81H127.77q-19.76,0-29.77-9.88t-10-29.1V216.68q0-13.17-11.86-13.17H66.92V182.44h9.22Q88,182.44,88,169.27V108.69q0-19.23,10-29.11t29.77-9.88h11.59V90.51h-6.59q-19.49,0-19.49,20.55v57.68Q113.28,179.54,109.86,185.07Z"/>
    </g>
    <g class="cls-2">
      <path d="M890.14,200.88q3.43-5.53,11.06-7.91-7.63-2.35-11.06-7.9t-3.42-16.33V111.06q0-20.55-19.49-20.55h-6.59V69.7h11.59Q892,69.7,902,79.58t10,29.1v60.59q0,13.17,11.86,13.17h9.22v21.07h-9.22q-11.85,0-11.86,13.17v60.58q0,19.23-10,29.11t-29.77,9.88H860.64V295.44h6.59q19.49,0,19.49-20.55V217.21Q886.72,206.41,890.14,200.88Z"/>
    </g>
  </g>
</svg>
